<svg width="265" height="500" viewBox="0 0 265 500" fill="none" xmlns="http://www.w3.org/2000/svg">
<g opacity="0.1" clip-path="url(#clip0_34_569)">
<path d="M-66.3441 413.816C-61.4942 426.021 -57.2748 438.372 -53.2979 450.868C-49.321 463.364 -45.5381 475.908 -42.2887 488.646C-35.6481 514.062 -30.3864 539.818 -26.5266 565.801L-30.94 562.216L15.6189 559.068C31.0901 558.342 46.6582 557.761 62.2748 557.664C77.8914 557.567 93.4596 557.664 108.979 559.068L155.587 562.701L150.737 567.98C147.992 551.991 147 535.75 147.778 519.546C148.603 503.35 151.255 487.297 155.684 471.694C160.229 456.302 165.736 441.209 172.173 426.506C178.273 411.741 185.27 397.361 193.125 383.448C186.626 397.978 180.612 412.508 175.471 427.765C170.1 442.683 165.487 457.862 161.649 473.244C157.996 488.517 155.996 504.138 155.684 519.837C155.366 535.478 156.683 551.11 159.612 566.479L160.679 572.145L154.714 571.758L108.543 568.658C100.88 568.028 93.1686 567.689 85.4572 567.593C77.7459 567.496 70.0831 567.302 62.3718 567.302C31.5266 567.302 0.584303 569.094 -30.261 570.547H-34.2379L-34.6744 566.769C-37.6813 540.954 -41.9492 515.236 -47.1871 489.711C-49.903 476.973 -52.619 464.235 -55.8199 451.594C-59.0208 438.953 -62.7552 426.409 -66.3441 413.816Z" fill="#8E98B1"/>
<path d="M-13.5289 412.169C-8.89543 422.527 -5.13191 433.252 -2.27714 444.232C0.621921 455.076 2.921 466.071 4.60969 477.167C6.27303 488.256 7.30932 499.43 7.71361 510.635C8.22487 521.951 7.80315 533.291 6.45267 544.538C3.88223 533.495 1.99077 522.549 0.196311 511.603C-1.59815 500.657 -3.24711 489.711 -4.99306 478.814C-6.73902 467.916 -8.24249 456.922 -9.84295 445.928C-11.4434 434.933 -12.7529 423.454 -13.5289 412.169Z" fill="#8E98B1"/>
<path d="M49.2286 404.759C51.7082 416.047 53.5701 427.462 54.8059 438.953C56.1639 450.383 56.9884 461.911 57.6674 473.389C58.2734 484.892 58.2734 496.419 57.6674 507.922C57.2201 519.486 56.119 531.016 54.3695 542.456C52.3059 531.081 50.8811 519.601 50.1016 508.068C49.5681 502.353 49.4226 496.589 49.0346 490.874C48.6466 485.159 48.5981 479.443 48.2101 473.728C47.6767 462.298 47.2886 450.868 47.4341 439.389C47.4078 427.822 48.0068 416.262 49.2286 404.759Z" fill="#8E98B1"/>
<path d="M126.002 396.525C125.42 408.343 124.159 419.919 122.85 431.446C121.54 442.973 120.037 454.5 118.63 465.979C117.224 477.458 115.575 488.985 113.781 500.464C111.986 511.942 110.289 523.47 107.767 534.997C106.355 523.316 105.836 511.545 106.215 499.786C106.836 476.315 109.908 452.972 115.381 430.138C118.037 418.674 121.588 407.435 126.002 396.525Z" fill="#8E98B1"/>
<path d="M-33.5589 297.963C-46.2804 299.651 -58.5796 303.674 -69.836 309.829C-80.898 315.906 -90.1387 324.817 -96.6074 335.644C-103.299 346.019 -106.79 358.129 -106.647 370.468C-106.345 376.127 -103.901 381.46 -99.8083 385.386C-95.2144 389.109 -89.8717 391.802 -84.1432 393.28C-72.0865 396.396 -59.6241 397.653 -47.1871 397.01C-34.6496 396.521 -22.2207 394.487 -10.1824 390.956C-4.16856 389.26 1.79678 387.226 7.71364 384.998C13.6305 382.77 19.4989 380.155 25.6582 377.83C37.9395 373.145 50.5724 369.436 63.4388 366.739C89.1511 361.919 115.361 360.292 141.473 361.895C154.374 362.428 167.226 363.494 179.739 363.203C192.252 362.913 204.813 360.878 210.681 351.095C213.694 346.098 215.364 340.409 215.531 334.579C215.818 328.512 215.18 322.437 213.64 316.562C210.865 304.545 203.816 293.944 193.804 286.727C188.553 283.368 182.833 280.805 176.829 279.123C158.544 273.03 138.907 272.224 120.182 276.798C132.549 272.792 145.583 271.246 158.545 272.245C165.098 272.783 171.59 273.901 177.945 275.587C184.487 277.095 190.765 279.576 196.568 282.949C202.363 286.483 207.326 291.224 211.118 296.849C214.93 302.428 217.873 308.552 219.848 315.012C221.839 321.521 222.773 328.307 222.612 335.112C222.579 342.184 220.708 349.127 217.18 355.26C213.321 361.594 207.315 366.337 200.254 368.628C193.724 370.687 186.926 371.781 180.079 371.873C166.838 372.405 153.986 371.534 141.279 371.243C115.943 369.907 90.5378 371.647 65.6213 376.425C53.2322 378.921 41.055 382.37 29.1986 386.742C23.3303 388.921 17.4619 391.585 11.3026 393.813C5.14522 396.172 -1.13669 398.193 -7.515 399.867C-20.3768 403.352 -33.62 405.239 -46.9445 405.486C-60.2639 406.02 -73.5814 404.384 -86.3741 400.642C-93.1002 398.699 -99.3114 395.292 -104.561 390.665C-109.748 385.524 -112.753 378.586 -112.951 371.292C-112.742 357.741 -108.431 344.571 -100.584 333.513C-93.1847 322.512 -82.992 313.67 -71.0485 307.892C-59.3403 302.118 -46.5935 298.742 -33.5589 297.963Z" fill="#8E98B1"/>
<path d="M100.395 204.438C106.234 200.047 113.033 197.103 120.234 195.848C127.434 194.594 134.83 195.064 141.813 197.221C149.062 199.674 155.57 203.924 160.727 209.572C166.207 215.614 169.188 223.507 169.069 231.658C168.568 239.558 165.619 247.107 160.63 253.259C158.37 256.114 155.941 258.831 153.356 261.396C150.777 263.981 147.987 266.346 145.014 268.467C133.195 276.846 118.896 281.008 104.42 280.285C117.597 277.313 129.869 271.235 140.212 262.558C145.01 258.179 149.334 253.309 153.113 248.028C156.771 243.256 158.931 237.509 159.321 231.512C160 220.082 150.252 209.669 138.952 204.389C126.564 199.49 112.77 199.507 100.395 204.438Z" fill="#8E98B1"/>
<path d="M-5.28406 192.087C-11.8082 196.146 -17.0792 201.929 -20.5127 208.797C-23.5681 215.287 -25.3626 223.327 -22.6951 227.008C-20.8 229.28 -18.292 230.961 -15.4688 231.851C-12.0738 233.061 -8.53633 233.826 -4.94457 234.128C2.94085 234.613 10.8554 234.289 18.6744 233.159C11.677 238.002 3.53641 240.94 -4.94457 241.683C-9.40702 242.179 -13.9221 241.884 -18.2818 240.812C-23.2677 239.567 -27.6705 236.641 -30.746 232.529C-32.3232 230.178 -33.2593 227.457 -33.4619 224.635C-33.6034 222.142 -33.358 219.642 -32.7344 217.224C-31.5763 212.861 -29.6375 208.742 -27.0115 205.068C-24.5456 201.463 -21.326 198.436 -17.5749 196.195C-13.8237 193.954 -9.6303 192.553 -5.28406 192.087Z" fill="#8E98B1"/>
<path d="M64.8938 175.572C68.6834 173.004 73.056 171.424 77.6133 170.976C82.1706 170.528 86.7678 171.225 90.9862 173.005C95.4215 174.948 99.3287 177.92 102.383 181.674C105.91 185.686 107.812 190.867 107.718 196.204C107.403 201.383 105.431 206.323 102.092 210.298C99.0862 213.914 95.4152 216.923 91.2772 219.162C83.471 223.396 74.5351 225.09 65.7183 224.005C73.4005 221.353 80.6179 217.512 87.1063 212.623C89.9739 210.665 92.4177 208.151 94.2924 205.231C96.1671 202.31 97.4343 199.043 98.0185 195.623C98.455 190.247 93.1686 183.369 87.5428 179.495C80.6796 175.597 72.6706 174.209 64.8938 175.572Z" fill="#8E98B1"/>
<path d="M12.903 167.338C11.3046 170.371 10.4252 173.73 10.3327 177.156C10.2402 180.582 10.937 183.984 12.3695 187.099C13.7923 189.905 15.8462 192.345 18.3703 194.227C20.8944 196.109 23.8203 197.383 26.9192 197.948C33.0499 198.806 39.2799 197.337 44.3788 193.831C49.6025 190.762 53.4152 185.772 55 179.93C56.7806 174.054 56.4896 167.746 54.1755 162.059C51.6367 156.397 47.019 151.924 41.2749 149.563C38.1436 148.186 34.898 147.083 31.5751 146.269C28.303 145.345 24.9334 144.809 21.5358 144.671C14.454 144.386 7.37743 145.353 0.632812 147.529C10.0799 141.204 21.5118 138.534 32.7876 140.021C36.5905 140.496 40.341 141.323 43.9908 142.491C47.9465 143.753 51.61 145.791 54.7665 148.486C57.9229 151.181 60.5086 154.478 62.3719 158.184C65.834 165.783 66.5037 174.357 64.2633 182.401C63.1325 186.488 61.194 190.307 58.5619 193.635C55.9298 196.962 52.6574 199.729 48.9377 201.774C45.3779 203.919 41.4267 205.336 37.3138 205.943C33.2009 206.55 29.0081 206.335 24.9793 205.31C21.0223 204.146 17.4109 202.032 14.4605 199.153C11.51 196.274 9.31018 192.717 8.05313 188.794C6.95727 185.102 6.8277 181.191 7.67679 177.434C8.52587 173.678 10.3252 170.202 12.903 167.338Z" fill="#8E98B1"/>
<path d="M40.5958 128.01C41.1703 123.942 42.3301 119.978 44.0393 116.24C47.2419 109.059 51.6915 102.5 57.1825 96.867C60.0339 93.908 63.3014 91.3791 66.8822 89.3598C66.3078 93.428 65.148 97.3921 63.4388 101.129C61.8499 104.704 59.9342 108.125 57.7159 111.349C55.514 114.593 53.0136 117.625 50.2471 120.406C47.4171 123.395 44.1658 125.957 40.5958 128.01Z" fill="#8E98B1"/>
<path d="M197.732 153.922C196.004 157.95 193.718 161.716 190.942 165.11C188.335 168.375 185.464 171.42 182.358 174.215C179.234 177.002 175.875 179.513 172.319 181.723C168.659 184.118 164.674 185.978 160.485 187.244C162.204 183.222 164.473 179.457 167.226 176.056C169.838 172.795 172.726 169.764 175.859 166.999C178.954 164.184 182.298 161.655 185.85 159.443C189.546 157.082 193.542 155.225 197.732 153.922Z" fill="#8E98B1"/>
<path d="M50.7321 113.189C43.7434 112.938 37.1009 110.088 32.1086 105.198C26.8362 100.172 23.3456 93.5682 22.1644 86.3855C20.9832 79.2028 22.1755 71.8313 25.5612 65.3853C28.6603 59.1244 34.0128 54.2635 40.5474 51.7755C36.9376 56.7558 34.2292 62.3292 32.5451 68.2428C31.118 73.6658 30.8511 79.3283 31.762 84.8611C32.6728 90.394 34.7409 95.673 37.8314 100.354C41.3318 105.366 45.7007 109.712 50.7321 113.189Z" fill="#8E98B1"/>
<path d="M29.8291 64.4166C25.5265 61.1954 22.0516 56.9995 19.6906 52.1746C17.3297 47.3496 16.1502 42.0336 16.2494 36.6642C16.888 31.1069 19.4836 25.9571 23.5728 22.1342C27.6419 18.4051 32.4038 15.5089 37.5889 13.6098C42.7484 11.5912 48.2039 10.4297 53.7391 10.1711C59.5589 10.1711 64.5543 11.4788 69.5012 11.5756C74.5388 11.7334 79.5812 11.5067 84.5843 10.8976C89.5279 10.5665 94.4133 9.63956 99.134 8.13689C101.423 7.34754 103.645 6.37571 105.778 5.23085C108.163 3.80541 110.624 2.51188 113.15 1.35615C116.251 0.22647 119.586 -0.106613 122.85 0.387497C125.729 0.969713 128.517 1.9306 131.143 3.24506C133.156 4.0384 135.286 4.49652 137.448 4.60119C139.431 4.66313 141.403 4.28258 143.219 3.48724C145.861 2.3781 148.607 1.5344 151.416 0.968675C154.36 0.445409 157.356 0.282806 160.339 0.484384C171.525 1.99141 182.15 6.28901 191.233 12.9802L197.829 17.4361C200.15 18.9877 202.37 20.6863 204.473 22.5216C205.283 23.2568 206.142 23.9365 207.044 24.5559C207.999 25.1729 208.987 25.7387 210.002 26.251C212.073 27.3199 214.231 28.211 216.453 28.9148C221.386 30.1785 226.39 31.1489 231.439 31.8209C234.602 32.5449 237.587 33.8954 240.217 35.7924C242.802 37.5735 245.093 39.7469 247.007 42.2341C250.48 47.1111 252.756 52.7355 253.651 58.653C254.786 64.7403 254.024 71.0288 251.469 76.6703C250.159 79.431 248.51 81.7558 247.492 83.6448C246.534 85.2524 246.062 87.1028 246.134 88.9724C246.108 90.8125 246.595 92.6235 247.54 94.2032C248.903 96.1527 250.428 97.9836 252.099 99.6762C255.836 103.974 258.79 108.891 260.829 114.206C263.207 119.381 264.621 124.945 265 130.625C265.117 133.683 264.673 136.736 263.691 139.634C262.707 142.688 260.934 145.428 258.55 147.577C253.991 151.549 249.965 153.825 246.328 157.264C242.687 160.674 239.434 164.475 236.628 168.597C233.718 172.617 231.778 177.557 228.141 182.013C226.294 184.121 224.192 185.992 221.885 187.583C219.717 189.215 217.413 190.657 214.998 191.894C212.553 193.33 209.822 194.213 206.998 194.48C204.174 194.748 201.326 194.394 198.654 193.444C193.602 191.188 189.525 187.202 187.159 182.207C184.809 177.464 183.377 172.321 182.94 167.047C183.839 172.191 185.698 177.12 188.42 181.577C190.849 186.024 194.787 189.459 199.527 191.264C201.845 191.906 204.276 192.031 206.649 191.629C209.021 191.227 211.275 190.309 213.252 188.939C217.512 186.391 221.288 183.112 224.406 179.253C227.219 175.572 228.965 170.486 231.924 165.788C234.753 161.143 238.105 156.837 241.915 152.953C245.6 148.933 250.547 145.688 253.748 142.637C255.224 141.241 256.281 139.464 256.804 137.503C257.422 135.415 257.652 133.232 257.483 131.061C256.933 126.321 255.554 121.715 253.409 117.451C251.57 113.035 248.977 108.971 245.746 105.44C243.71 103.43 241.86 101.242 240.217 98.9013C238.357 96.0057 237.334 92.6538 237.259 89.2146C237.166 85.8488 237.934 82.515 239.49 79.5279C240.896 76.7672 242.254 74.6845 243.127 72.7956C244.605 68.6489 245.033 64.2014 244.373 59.8494C243.713 55.4974 241.986 51.376 239.344 47.8524C237.046 44.4871 233.597 42.0757 229.644 41.0716C224.33 40.416 219.065 39.4129 213.882 38.0688C211.135 37.1774 208.473 36.0428 205.928 34.6784C204.61 34.0088 203.331 33.2649 202.097 32.4505C200.855 31.5765 199.673 30.622 198.557 29.5929C196.715 28.0046 194.788 26.5171 192.785 25.137L186.383 20.778C178.656 14.9319 169.616 11.0581 160.049 9.49302C157.808 9.24975 155.548 9.24975 153.307 9.49302C151.001 9.93489 148.743 10.5999 146.566 11.4787C143.469 12.6263 140.156 13.073 136.866 12.7865C133.799 12.5431 130.788 11.8241 127.942 10.6554C125.911 9.57593 123.763 8.73103 121.54 8.13689C119.644 7.82583 117.702 7.9584 115.866 8.52429C114.12 9.1055 111.792 10.5586 109.27 11.7694C106.734 13.0018 104.108 14.0381 101.413 14.8692C96.1169 16.3495 90.6629 17.1949 85.1663 17.3876C79.7776 17.8722 74.3563 17.8722 68.9677 17.3876C63.4873 16.9517 58.2494 15.4019 53.642 15.2566C48.699 15.2512 43.787 16.0361 39.0924 17.5814C34.3247 18.9629 29.8755 21.2667 25.9977 24.3621C22.1606 27.4398 19.589 31.8177 18.7714 36.6642C18.1142 41.6209 18.8882 46.662 21.0023 51.1943C23.0479 56.1371 26.0471 60.6299 29.8291 64.4166Z" fill="#8E98B1"/>
<path d="M54.3695 51.4849C57.029 55.1236 60.016 58.5119 63.2933 61.6075C66.1876 64.2899 69.4546 66.5411 72.993 68.2913C80.8264 71.7016 89.1647 73.8119 97.679 74.5392C93.7129 77.6556 88.8931 79.4965 83.8568 79.8184C78.6291 80.2941 73.3722 79.3045 68.6766 76.9609C63.9225 74.7434 59.9848 71.0923 57.4181 66.522C54.8514 61.9516 53.7852 56.6923 54.3695 51.4849Z" fill="#8E98B1"/>
<path d="M106.215 53.8097C107.809 61.702 110.904 69.2158 115.333 75.9438C119.616 82.3537 125.368 87.6504 132.113 91.3941C138.939 95.0573 146.306 97.608 153.938 98.9497C157.751 99.7603 161.604 100.375 165.48 100.79C169.321 101.127 173.183 101.127 177.023 100.79C181.583 100.465 186.165 100.857 190.603 101.953C194.908 103.102 199.073 104.726 203.018 106.796C210.772 110.922 217.5 116.731 222.709 123.796C225.78 127.174 228.153 131.124 229.693 135.42C230.413 138.016 230.242 140.778 229.208 143.266C228.312 145.541 226.881 147.568 225.037 149.175C223.42 150.768 221.444 151.95 219.274 152.62C217.104 153.29 214.805 153.429 212.57 153.026C210.335 152.622 208.23 151.687 206.432 150.301C204.635 148.914 203.198 147.116 202.242 145.058C203.502 146.564 205.053 147.8 206.804 148.69C208.554 149.581 210.467 150.108 212.427 150.241C214.195 150.271 215.947 149.894 217.545 149.138C219.143 148.381 220.545 147.267 221.642 145.882C222.737 144.778 223.503 143.391 223.854 141.877C224.205 140.363 224.128 138.782 223.63 137.309C221.876 134.109 219.634 131.201 216.986 128.688C211.947 122.944 205.793 118.281 198.896 114.981C195.505 113.365 191.964 112.083 188.323 111.155C184.796 110.338 181.158 110.109 177.557 110.477C173.231 110.814 168.885 110.814 164.559 110.477C160.291 109.991 156.062 109.214 151.901 108.152C143.435 106.256 135.383 102.843 128.136 98.0779C120.887 93.2182 115.049 86.5359 111.21 78.7045C107.533 70.9387 105.817 62.391 106.215 53.8097Z" fill="#8E98B1"/>
<path d="M46.2217 130.044C56.9671 125.671 68.6804 124.217 80.1709 125.83C91.8891 127.467 103.092 131.704 112.956 138.229C117.766 141.487 122.351 145.063 126.681 148.933C131.012 152.837 134.988 157.116 138.563 161.72C145.666 170.786 150.847 181.2 153.792 192.33C147.563 183.185 140.553 174.597 132.841 166.66C129.014 162.859 124.982 159.27 120.764 155.908C116.587 152.433 112.215 149.198 107.67 146.221C98.7584 140.267 88.9276 135.816 78.5704 133.047C67.9995 130.43 57.0944 129.418 46.2217 130.044Z" fill="#8E98B1"/>
<path d="M148.069 299.658L154.229 310.798" stroke="#8E98B1" stroke-miterlimit="10"/>
<path d="M32.6906 292.248L25.2703 305.858" stroke="#8E98B1" stroke-miterlimit="10"/>
<path d="M69.8407 246.478L78.522 256.165" stroke="#8E98B1" stroke-miterlimit="10"/>
<path d="M80.9954 330.462L76.1455 344.072" stroke="#8E98B1" stroke-miterlimit="10"/>
</g>
<defs>
<clipPath id="clip0_34_569">
<rect width="378" height="572" fill="white" transform="translate(-113)"/>
</clipPath>
</defs>
</svg>
