<svg width="31" height="33" viewBox="0 0 31 33" fill="none" xmlns="http://www.w3.org/2000/svg">
<path d="M29.424 31.5L20.1704 21.8938M20.1704 21.8938C21.4239 20.712 22.4056 19.2596 23.0446 17.6414C23.7799 15.7447 24.0292 13.6867 23.7689 11.6633C23.5086 9.63986 22.7473 7.71842 21.5575 6.08191C17.9835 1.2916 12.3352 1.47732 11.7728 1.50934C10.1047 1.61215 8.47603 2.07218 6.99197 2.85976C5.5079 3.64734 4.20136 4.74498 3.1566 6.08191C2.99415 6.29965 -0.561066 11.2052 1.35088 17.0971C1.96399 18.9768 3.03003 20.6676 4.45026 22.0127C5.87049 23.3579 7.59897 24.3139 9.47557 24.7922C11.3522 25.2705 13.3162 25.2556 15.1857 24.749C17.0552 24.2423 18.7697 23.2603 20.1704 21.8938Z" stroke="white" stroke-width="1.36364" stroke-miterlimit="10" stroke-linecap="round" stroke-linejoin="round"/>
</svg>
