<svg width="36" height="32" viewBox="0 0 36 32" fill="none" xmlns="http://www.w3.org/2000/svg">
<path d="M18.1031 4.50522C18.9703 3.33727 20.0721 2.37585 21.333 1.68662C22.594 0.997376 23.9844 0.596543 25.4095 0.51148C27.615 0.451161 29.7708 1.19144 31.5001 2.60287C33.2664 4.09625 34.4546 6.19227 34.8494 8.51078C35.4687 11.9846 34.0465 14.7613 32.9912 16.8409C31.8454 18.9686 30.3735 20.8918 28.6326 22.5361C25.5405 25.6396 22.0705 28.3166 18.3095 30.5C13.5552 28.2977 9.31229 25.075 5.86448 21.0474C4.05753 19.1049 2.69389 16.7718 1.8729 14.2178C1.26499 12.1737 0.140921 8.30992 2.20553 4.87152C3.6918 2.69434 5.93908 1.195 8.47558 0.688268C11.0121 0.181541 13.6405 0.706837 15.809 2.15388C16.6985 2.79687 17.4744 3.59217 18.1031 4.50522Z" fill="white" stroke="#516CB1" stroke-miterlimit="10"/>
</svg>
