<svg width="39" height="35" viewBox="0 0 39 35" fill="none" xmlns="http://www.w3.org/2000/svg">
<mask id="path-1-inside-1_74_1251" fill="white">
<path d="M2.03876 13.2099V35H36.4442L36.3382 13.2257"/>
<path d="M0 14.7934L19.3817 0L38.4915 14.7934"/>
<path d="M31.8722 9.67262L31.8212 3.81549L28.346 3.67325L28.4309 7.02018"/>
</mask>
<path d="M2.03876 13.2099V35H36.4442L36.3382 13.2257" fill="#516CB1"/>
<path d="M0 14.7934L19.3817 0L38.4915 14.7934" fill="#516CB1"/>
<path d="M31.8722 9.67262L31.8212 3.81549L28.346 3.67325L28.4309 7.02018" fill="#516CB1"/>
<path d="M3.18561 13.2099C3.18561 12.5765 2.67215 12.0631 2.03876 12.0631C1.40537 12.0631 0.891914 12.5765 0.891914 13.2099H3.18561ZM2.03876 35H0.891914C0.891914 35.6334 1.40537 36.1468 2.03876 36.1468L2.03876 35ZM36.4442 35V36.1468C36.7493 36.1468 37.0418 36.0253 37.2571 35.809C37.4723 35.5927 37.5925 35.2995 37.591 34.9944L36.4442 35ZM37.485 13.2201C37.4819 12.5868 36.966 12.0758 36.3326 12.0789C35.6992 12.082 35.1883 12.5979 35.1913 13.2313L37.485 13.2201ZM-0.695825 13.8818C-1.19931 14.2661 -1.29593 14.9858 -0.911639 15.4893C-0.527345 15.9927 0.192341 16.0894 0.695825 15.7051L-0.695825 13.8818ZM19.3817 0L20.0837 -0.906867C19.6727 -1.22506 19.0991 -1.22701 18.6859 -0.911639L19.3817 0ZM37.7894 15.7003C38.2903 16.088 39.0106 15.9963 39.3983 15.4955C39.7861 14.9946 39.6944 14.2743 39.1935 13.8866L37.7894 15.7003ZM30.7254 9.6826C30.7309 10.316 31.2488 10.8249 31.8822 10.8194C32.5156 10.8139 33.0245 10.296 33.019 9.66264L30.7254 9.6826ZM31.8212 3.81549L32.968 3.80551C32.9627 3.19425 32.4789 2.6946 31.8681 2.6696L31.8212 3.81549ZM28.346 3.67325L28.3929 2.52736C28.0758 2.51438 27.7675 2.63338 27.5413 2.85604C27.3152 3.07869 27.1914 3.3851 27.1995 3.70236L28.346 3.67325ZM27.2845 7.04929C27.3005 7.68247 27.8269 8.18273 28.46 8.16666C29.0932 8.15058 29.5935 7.62425 29.5774 6.99107L27.2845 7.04929ZM0.891914 13.2099V35H3.18561V13.2099H0.891914ZM2.03876 36.1468H36.4442V33.8532H2.03876V36.1468ZM37.591 34.9944L37.485 13.2201L35.1913 13.2313L35.2973 35.0056L37.591 34.9944ZM0.695825 15.7051L20.0775 0.911639L18.6859 -0.911639L-0.695825 13.8818L0.695825 15.7051ZM18.6797 0.906867L37.7894 15.7003L39.1935 13.8866L20.0837 -0.906867L18.6797 0.906867ZM33.019 9.66264L32.968 3.80551L30.6744 3.82547L30.7254 9.6826L33.019 9.66264ZM31.8681 2.6696L28.3929 2.52736L28.2991 4.81914L31.7743 4.96138L31.8681 2.6696ZM27.1995 3.70236L27.2845 7.04929L29.5774 6.99107L29.4924 3.64414L27.1995 3.70236Z" fill="white" mask="url(#path-1-inside-1_74_1251)"/>
<rect x="15.2275" y="19.5175" width="9.17477" height="14.909" stroke="white" stroke-width="1.14685"/>
</svg>
