<svg width="36" height="33" viewBox="0 0 36 33" fill="none" xmlns="http://www.w3.org/2000/svg">
<path d="M18.103 5.50522C18.9703 4.33727 20.072 3.37585 21.3329 2.68662C22.5939 1.99738 23.9844 1.59654 25.4094 1.51148C27.6149 1.45116 29.7708 2.19144 31.5 3.60287C33.2663 5.09625 34.4546 7.19227 34.8493 9.51078C35.4687 12.9846 34.0464 15.7613 32.9911 17.8409C31.8453 19.9686 30.3735 21.8918 28.6325 23.5361C25.5404 26.6396 22.0704 29.3166 18.3095 31.5C13.5552 29.2977 9.31223 26.075 5.86442 22.0474C4.05746 20.1049 2.69383 17.7718 1.87284 15.2178C1.26493 13.1737 0.14086 9.30992 2.20547 5.87152C3.69174 3.69434 5.93902 2.195 8.47552 1.68827C11.012 1.18154 13.6404 1.70684 15.809 3.15388C16.6985 3.79687 17.4744 4.59217 18.103 5.50522Z" stroke="white" stroke-width="1.30122" stroke-miterlimit="10"/>
</svg>
