<svg width="32" height="33" viewBox="0 0 32 33" fill="none" xmlns="http://www.w3.org/2000/svg">
<path d="M30.424 31.5L21.1704 21.8938C22.4239 20.712 23.4056 19.2596 24.0446 17.6414C24.7799 15.7447 25.0292 13.6867 24.7689 11.6633C24.5086 9.63986 23.7473 7.71842 22.5575 6.08191C18.9835 1.2916 13.3352 1.47732 12.7728 1.50934C11.1047 1.61215 9.47603 2.07218 7.99197 2.85976C6.5079 3.64734 5.20136 4.74498 4.1566 6.08191C3.99415 6.29965 0.438934 11.2052 2.35088 17.0971C2.96399 18.9768 4.03003 20.6676 5.45026 22.0127C6.87049 23.3579 8.59897 24.3139 10.4756 24.7922C12.3522 25.2705 14.3162 25.2556 16.1857 24.749C18.0552 24.2423 19.7697 23.2603 21.1704 21.8938" fill="white"/>
<path d="M30.424 31.5L21.1704 21.8938M21.1704 21.8938C22.4239 20.712 23.4056 19.2596 24.0446 17.6414C24.7799 15.7447 25.0292 13.6867 24.7689 11.6633C24.5086 9.63986 23.7473 7.71842 22.5575 6.08191C18.9835 1.2916 13.3352 1.47732 12.7728 1.50934C11.1047 1.61215 9.47603 2.07218 7.99197 2.85976C6.5079 3.64734 5.20136 4.74498 4.1566 6.08191C3.99415 6.29965 0.438934 11.2052 2.35088 17.0971C2.96399 18.9768 4.03003 20.6676 5.45026 22.0127C6.87049 23.3579 8.59897 24.3139 10.4756 24.7922C12.3522 25.2705 14.3162 25.2556 16.1857 24.749C18.0552 24.2423 19.7697 23.2603 21.1704 21.8938Z" stroke="white" stroke-width="3" stroke-miterlimit="10" stroke-linecap="round" stroke-linejoin="round"/>
<path d="M8.25881 18.6065L7.57987 19.3407C8.62641 20.3085 9.90015 20.9963 11.2831 21.3405C12.6661 21.6847 14.1135 21.674 15.4913 21.3094C16.8663 20.9456 18.1274 20.2411 19.1584 19.261C20.0791 18.4119 20.8002 17.3691 21.2698 16.2077L21.2698 16.2078L21.2722 16.2019C21.813 14.8399 21.9964 13.362 21.8049 11.909C21.6135 10.456 21.0536 9.07623 20.1784 7.90097L20.1785 7.90092L20.1709 7.89105C17.523 4.42578 13.3806 4.57515 12.962 4.59841L12.962 4.5984L12.9575 4.59868C11.7338 4.67231 10.5391 5.00179 9.45054 5.56584C8.36195 6.12988 7.40364 6.91596 6.63737 7.87334L6.62352 7.89105C6.49246 8.06256 3.88237 11.5507 5.29564 15.8028L5.29612 15.8043C5.74786 17.1565 6.53333 18.3729 7.57987 19.3407L8.25881 18.6065Z" stroke="#516CB1" stroke-width="2" stroke-miterlimit="10" stroke-linecap="round" stroke-linejoin="round"/>
</svg>
