<svg width="37" height="37" viewBox="0 0 37 37" fill="none" xmlns="http://www.w3.org/2000/svg">
<path d="M18.2201 1V36M35.7201 18.5H0.720093M6.10471 36H30.3355C33.3093 36 35.7201 33.5892 35.7201 30.6154V6.38462C35.7201 3.41077 33.3093 1 30.3355 1H6.10471C3.13087 1 0.720093 3.41077 0.720093 6.38462V30.6154C0.720093 33.5892 3.13087 36 6.10471 36Z" stroke="white" stroke-width="1.34615"/>
<path d="M4.75854 9.74999H9.47008M9.47008 9.74999H14.1816M9.47008 9.74999V5.03845M9.47008 9.74999V14.4615M22.2585 9.74999H31.6816M6.1047 23.8846L9.47008 27.25M9.47008 27.25L12.8355 30.6154M9.47008 27.25L6.1047 30.6154M9.47008 27.25L12.8355 23.8846M22.2585 29.2692H31.6816M22.2585 25.2308H31.6816" stroke="white" stroke-width="1.34615" stroke-linecap="round" stroke-linejoin="round"/>
</svg>
