<svg width="20" height="18" viewBox="0 0 20 18" fill="none" xmlns="http://www.w3.org/2000/svg">
<path d="M9.98827 3.13612C10.4508 2.51321 11.0384 2.00046 11.7109 1.63286C12.3834 1.26527 13.125 1.05149 13.885 1.00612C15.0613 0.973952 16.2111 1.36877 17.1334 2.12153C18.0754 2.918 18.7091 4.03587 18.9196 5.27241C19.25 7.12513 18.4914 8.60605 17.9286 9.71516C17.3175 10.8499 16.5325 11.8756 15.604 12.7526C13.9549 14.4078 12.1042 15.8355 10.0984 17C7.56277 15.8254 5.29986 14.1066 3.46103 11.9586C2.49732 10.9226 1.77005 9.67827 1.33219 8.31617C1.00797 7.22596 0.408467 5.16529 1.50959 3.33148C2.30227 2.17031 3.50082 1.37066 4.85362 1.10041C6.20641 0.830155 7.60824 1.11031 8.7648 1.88207C9.23918 2.225 9.653 2.64916 9.98827 3.13612Z" fill="#E94863" stroke="#E94863" stroke-miterlimit="10"/>
</svg>
