<svg width="159" height="50" viewBox="0 0 159 50" fill="none" xmlns="http://www.w3.org/2000/svg">
<g clip-path="url(#clip0_74_1140)">
<path d="M4.57574 36.1727C4.99911 37.2396 5.36745 38.3192 5.71461 39.4115C6.06177 40.5038 6.392 41.6003 6.67566 42.7138C7.25535 44.9355 7.71467 47.1869 8.05161 49.4581L7.66634 49.1448L11.7307 48.8696C13.0812 48.8061 14.4403 48.7553 15.8035 48.7468C17.1668 48.7383 18.5258 48.7468 19.8806 48.8696L23.9492 49.1871L23.5258 49.6486C23.2862 48.2509 23.1996 46.8313 23.2675 45.4149C23.3396 43.9991 23.5711 42.5959 23.9576 41.232C24.3544 39.8865 24.8352 38.5672 25.3971 37.2819C25.9296 35.9913 26.5403 34.7344 27.226 33.5182C26.6587 34.7883 26.1337 36.0584 25.685 37.392C25.2161 38.696 24.8134 40.0229 24.4784 41.3675C24.1594 42.7025 23.9849 44.068 23.9576 45.4403C23.9299 46.8075 24.0448 48.1739 24.3006 49.5173L24.3937 50.0127L23.873 49.9788L19.8425 49.7079C19.1735 49.6528 18.5004 49.6232 17.8272 49.6147C17.1541 49.6062 16.4851 49.5893 15.812 49.5893C13.1194 49.5893 10.4183 49.746 7.72562 49.873H7.37846L7.34035 49.5427C7.07786 47.2862 6.70529 45.0381 6.24806 42.8069C6.01097 41.6935 5.77388 40.58 5.49446 39.475C5.21503 38.37 4.88904 37.2735 4.57574 36.1727Z" fill="#516CB1"/>
<path d="M4.57574 36.1727C4.99911 37.2396 5.36745 38.3192 5.71461 39.4115C6.06177 40.5038 6.392 41.6003 6.67566 42.7138C7.25535 44.9355 7.71467 47.1869 8.05161 49.4581L7.66634 49.1448L11.7307 48.8696C13.0812 48.8061 14.4403 48.7553 15.8035 48.7468C17.1668 48.7383 18.5258 48.7468 19.8806 48.8696L23.9492 49.1871L23.5258 49.6486C23.2862 48.2509 23.1996 46.8313 23.2675 45.4149C23.3396 43.9991 23.5711 42.5959 23.9576 41.232C24.3544 39.8865 24.8352 38.5672 25.3971 37.2819C25.9296 35.9913 26.5403 34.7344 27.226 33.5182C26.6587 34.7883 26.1337 36.0584 25.685 37.392C25.2161 38.696 24.8134 40.0229 24.4784 41.3675C24.1594 42.7025 23.9849 44.068 23.9576 45.4403C23.9299 46.8075 24.0448 48.1739 24.3006 49.5173L24.3937 50.0127L23.873 49.9788L19.8425 49.7079C19.1735 49.6528 18.5004 49.6232 17.8272 49.6147C17.1541 49.6062 16.4851 49.5893 15.812 49.5893C13.1194 49.5893 10.4183 49.746 7.72562 49.873H7.37846L7.34035 49.5427C7.07786 47.2862 6.70529 45.0381 6.24806 42.8069C6.01097 41.6935 5.77388 40.58 5.49446 39.475C5.21503 38.37 4.88904 37.2735 4.57574 36.1727Z" fill="black" fill-opacity="0.5"/>
<path d="M4.57574 36.1727C4.99911 37.2396 5.36745 38.3192 5.71461 39.4115C6.06177 40.5038 6.392 41.6003 6.67566 42.7138C7.25535 44.9355 7.71467 47.1869 8.05161 49.4581L7.66634 49.1448L11.7307 48.8696C13.0812 48.8061 14.4403 48.7553 15.8035 48.7468C17.1668 48.7383 18.5258 48.7468 19.8806 48.8696L23.9492 49.1871L23.5258 49.6486C23.2862 48.2509 23.1996 46.8313 23.2675 45.4149C23.3396 43.9991 23.5711 42.5959 23.9576 41.232C24.3544 39.8865 24.8352 38.5672 25.3971 37.2819C25.9296 35.9913 26.5403 34.7344 27.226 33.5182C26.6587 34.7883 26.1337 36.0584 25.685 37.392C25.2161 38.696 24.8134 40.0229 24.4784 41.3675C24.1594 42.7025 23.9849 44.068 23.9576 45.4403C23.9299 46.8075 24.0448 48.1739 24.3006 49.5173L24.3937 50.0127L23.873 49.9788L19.8425 49.7079C19.1735 49.6528 18.5004 49.6232 17.8272 49.6147C17.1541 49.6062 16.4851 49.5893 15.812 49.5893C13.1194 49.5893 10.4183 49.746 7.72562 49.873H7.37846L7.34035 49.5427C7.07786 47.2862 6.70529 45.0381 6.24806 42.8069C6.01097 41.6935 5.77388 40.58 5.49446 39.475C5.21503 38.37 4.88904 37.2735 4.57574 36.1727Z" fill="white" fill-opacity="0.75"/>
<path d="M9.18628 36.0288C9.59075 36.9342 9.91929 37.8717 10.1685 38.8315C10.4216 39.7794 10.6223 40.7405 10.7697 41.7104C10.9149 42.6797 11.0053 43.6564 11.0406 44.6359C11.0853 45.6251 11.0485 46.6163 10.9306 47.5995C10.7062 46.6342 10.5411 45.6774 10.3844 44.7206C10.2278 43.7638 10.0838 42.807 9.93141 41.8544C9.779 40.9018 9.64775 39.9407 9.50804 38.9797C9.36833 38.0186 9.25402 37.0153 9.18628 36.0288Z" fill="#516CB1"/>
<path d="M9.18628 36.0288C9.59075 36.9342 9.91929 37.8717 10.1685 38.8315C10.4216 39.7794 10.6223 40.7405 10.7697 41.7104C10.9149 42.6797 11.0053 43.6564 11.0406 44.6359C11.0853 45.6251 11.0485 46.6163 10.9306 47.5995C10.7062 46.6342 10.5411 45.6774 10.3844 44.7206C10.2278 43.7638 10.0838 42.807 9.93141 41.8544C9.779 40.9018 9.64775 39.9407 9.50804 38.9797C9.36833 38.0186 9.25402 37.0153 9.18628 36.0288Z" fill="black" fill-opacity="0.5"/>
<path d="M9.18628 36.0288C9.59075 36.9342 9.91929 37.8717 10.1685 38.8315C10.4216 39.7794 10.6223 40.7405 10.7697 41.7104C10.9149 42.6797 11.0053 43.6564 11.0406 44.6359C11.0853 45.6251 11.0485 46.6163 10.9306 47.5995C10.7062 46.6342 10.5411 45.6774 10.3844 44.7206C10.2278 43.7638 10.0838 42.807 9.93141 41.8544C9.779 40.9018 9.64775 39.9407 9.50804 38.9797C9.36833 38.0186 9.25402 37.0153 9.18628 36.0288Z" fill="white" fill-opacity="0.75"/>
<path d="M14.6646 35.381C14.8811 36.3678 15.0436 37.3656 15.1515 38.37C15.2701 39.3692 15.342 40.3768 15.4013 41.3802C15.4542 42.3857 15.4542 43.3933 15.4013 44.3988C15.3623 45.4096 15.2661 46.4175 15.1134 47.4174C14.9333 46.4232 14.8089 45.4197 14.7409 44.4115C14.6943 43.9119 14.6816 43.4081 14.6477 42.9086C14.6138 42.409 14.6096 41.9094 14.5757 41.4098C14.5292 40.4107 14.4953 39.4115 14.508 38.4081C14.5057 37.397 14.558 36.3865 14.6646 35.381Z" fill="#516CB1"/>
<path d="M14.6646 35.381C14.8811 36.3678 15.0436 37.3656 15.1515 38.37C15.2701 39.3692 15.342 40.3768 15.4013 41.3802C15.4542 42.3857 15.4542 43.3933 15.4013 44.3988C15.3623 45.4096 15.2661 46.4175 15.1134 47.4174C14.9333 46.4232 14.8089 45.4197 14.7409 44.4115C14.6943 43.9119 14.6816 43.4081 14.6477 42.9086C14.6138 42.409 14.6096 41.9094 14.5757 41.4098C14.5292 40.4107 14.4953 39.4115 14.508 38.4081C14.5057 37.397 14.558 36.3865 14.6646 35.381Z" fill="black" fill-opacity="0.5"/>
<path d="M14.6646 35.381C14.8811 36.3678 15.0436 37.3656 15.1515 38.37C15.2701 39.3692 15.342 40.3768 15.4013 41.3802C15.4542 42.3857 15.4542 43.3933 15.4013 44.3988C15.3623 45.4096 15.2661 46.4175 15.1134 47.4174C14.9333 46.4232 14.8089 45.4197 14.7409 44.4115C14.6943 43.9119 14.6816 43.4081 14.6477 42.9086C14.6138 42.409 14.6096 41.9094 14.5757 41.4098C14.5292 40.4107 14.4953 39.4115 14.508 38.4081C14.5057 37.397 14.558 36.3865 14.6646 35.381Z" fill="white" fill-opacity="0.75"/>
<path d="M21.3666 34.6613C21.3158 35.6943 21.2057 36.7062 21.0914 37.7138C20.9771 38.7214 20.8459 39.7291 20.7231 40.7324C20.6003 41.7358 20.4564 42.7435 20.2997 43.7468C20.1431 44.7502 19.9949 45.7578 19.7747 46.7655C19.6515 45.7444 19.6062 44.7155 19.6393 43.6876C19.6935 41.6359 19.9617 39.5955 20.4394 37.5995C20.6712 36.5974 20.9813 35.615 21.3666 34.6613Z" fill="#516CB1"/>
<path d="M21.3666 34.6613C21.3158 35.6943 21.2057 36.7062 21.0914 37.7138C20.9771 38.7214 20.8459 39.7291 20.7231 40.7324C20.6003 41.7358 20.4564 42.7435 20.2997 43.7468C20.1431 44.7502 19.9949 45.7578 19.7747 46.7655C19.6515 45.7444 19.6062 44.7155 19.6393 43.6876C19.6935 41.6359 19.9617 39.5955 20.4394 37.5995C20.6712 36.5974 20.9813 35.615 21.3666 34.6613Z" fill="black" fill-opacity="0.5"/>
<path d="M21.3666 34.6613C21.3158 35.6943 21.2057 36.7062 21.0914 37.7138C20.9771 38.7214 20.8459 39.7291 20.7231 40.7324C20.6003 41.7358 20.4564 42.7435 20.2997 43.7468C20.1431 44.7502 19.9949 45.7578 19.7747 46.7655C19.6515 45.7444 19.6062 44.7155 19.6393 43.6876C19.6935 41.6359 19.9617 39.5955 20.4394 37.5995C20.6712 36.5974 20.9813 35.615 21.3666 34.6613Z" fill="white" fill-opacity="0.75"/>
<path d="M7.43771 26.0457C6.32719 26.1933 5.25353 26.5449 4.2709 27.083C3.30525 27.6142 2.49858 28.3931 1.9339 29.3395C1.34978 30.2464 1.04503 31.3049 1.05752 32.3836C1.08382 32.8782 1.29722 33.3444 1.65447 33.6876C2.0555 34.0131 2.52189 34.2484 3.02196 34.3776C4.07444 34.65 5.16235 34.7599 6.24804 34.7036C7.34249 34.6609 8.42748 34.4831 9.47835 34.1744C10.0033 34.0262 10.5241 33.8484 11.0406 33.6537C11.5571 33.4589 12.0694 33.2303 12.6071 33.0271C13.6792 32.6175 14.7819 32.2934 15.9051 32.0576C18.1497 31.6362 20.4377 31.494 22.7171 31.6342C23.8433 31.6808 24.9652 31.7739 26.0575 31.7485C27.1498 31.7231 28.2463 31.5453 28.7586 30.6901C29.0216 30.2533 29.1674 29.756 29.182 29.2464C29.207 28.7161 29.1514 28.185 29.0169 27.6715C28.7746 26.6211 28.1593 25.6944 27.2853 25.0635C26.827 24.7699 26.3276 24.5459 25.8035 24.3988C24.2073 23.8663 22.4931 23.7958 20.8585 24.1956C21.9381 23.8455 23.0758 23.7103 24.2074 23.7976C24.7794 23.8447 25.3462 23.9424 25.9009 24.0897C26.472 24.2216 27.02 24.4385 27.5266 24.7333C28.0325 25.0422 28.4657 25.4567 28.7967 25.9483C29.1295 26.436 29.3864 26.9713 29.5588 27.536C29.7327 28.105 29.8141 28.6982 29.8001 29.293C29.7973 29.9112 29.6339 30.5181 29.3259 31.0542C28.989 31.6079 28.4648 32.0224 27.8484 32.2227C27.2783 32.4027 26.6849 32.4983 26.0872 32.5063C24.9314 32.5529 23.8094 32.4767 22.7002 32.4513C20.4885 32.3345 18.2707 32.4866 16.0956 32.9043C15.0141 33.1225 13.9511 33.424 12.9161 33.8061C12.4038 33.9966 11.8916 34.2295 11.3539 34.4242C10.8164 34.6304 10.268 34.8071 9.71121 34.9534C8.58843 35.2581 7.43237 35.423 6.26921 35.4445C5.1065 35.4912 3.94394 35.3482 2.82721 35.0212C2.24006 34.8513 1.69785 34.5535 1.23957 34.149C0.786794 33.6997 0.524493 33.0932 0.507141 32.4555C0.525414 31.271 0.901779 30.1198 1.58673 29.1533C2.23268 28.1916 3.12245 27.4187 4.16506 26.9136C5.18712 26.4089 6.29985 26.1138 7.43771 26.0457Z" fill="#516CB1"/>
<path d="M7.43771 26.0457C6.32719 26.1933 5.25353 26.5449 4.2709 27.083C3.30525 27.6142 2.49858 28.3931 1.9339 29.3395C1.34978 30.2464 1.04503 31.3049 1.05752 32.3836C1.08382 32.8782 1.29722 33.3444 1.65447 33.6876C2.0555 34.0131 2.52189 34.2484 3.02196 34.3776C4.07444 34.65 5.16235 34.7599 6.24804 34.7036C7.34249 34.6609 8.42748 34.4831 9.47835 34.1744C10.0033 34.0262 10.5241 33.8484 11.0406 33.6537C11.5571 33.4589 12.0694 33.2303 12.6071 33.0271C13.6792 32.6175 14.7819 32.2934 15.9051 32.0576C18.1497 31.6362 20.4377 31.494 22.7171 31.6342C23.8433 31.6808 24.9652 31.7739 26.0575 31.7485C27.1498 31.7231 28.2463 31.5453 28.7586 30.6901C29.0216 30.2533 29.1674 29.756 29.182 29.2464C29.207 28.7161 29.1514 28.185 29.0169 27.6715C28.7746 26.6211 28.1593 25.6944 27.2853 25.0635C26.827 24.7699 26.3276 24.5459 25.8035 24.3988C24.2073 23.8663 22.4931 23.7958 20.8585 24.1956C21.9381 23.8455 23.0758 23.7103 24.2074 23.7976C24.7794 23.8447 25.3462 23.9424 25.9009 24.0897C26.472 24.2216 27.02 24.4385 27.5266 24.7333C28.0325 25.0422 28.4657 25.4567 28.7967 25.9483C29.1295 26.436 29.3864 26.9713 29.5588 27.536C29.7327 28.105 29.8141 28.6982 29.8001 29.293C29.7973 29.9112 29.6339 30.5181 29.3259 31.0542C28.989 31.6079 28.4648 32.0224 27.8484 32.2227C27.2783 32.4027 26.6849 32.4983 26.0872 32.5063C24.9314 32.5529 23.8094 32.4767 22.7002 32.4513C20.4885 32.3345 18.2707 32.4866 16.0956 32.9043C15.0141 33.1225 13.9511 33.424 12.9161 33.8061C12.4038 33.9966 11.8916 34.2295 11.3539 34.4242C10.8164 34.6304 10.268 34.8071 9.71121 34.9534C8.58843 35.2581 7.43237 35.423 6.26921 35.4445C5.1065 35.4912 3.94394 35.3482 2.82721 35.0212C2.24006 34.8513 1.69785 34.5535 1.23957 34.149C0.786794 33.6997 0.524493 33.0932 0.507141 32.4555C0.525414 31.271 0.901779 30.1198 1.58673 29.1533C2.23268 28.1916 3.12245 27.4187 4.16506 26.9136C5.18712 26.4089 6.29985 26.1138 7.43771 26.0457Z" fill="black" fill-opacity="0.5"/>
<path d="M7.43771 26.0457C6.32719 26.1933 5.25353 26.5449 4.2709 27.083C3.30525 27.6142 2.49858 28.3931 1.9339 29.3395C1.34978 30.2464 1.04503 31.3049 1.05752 32.3836C1.08382 32.8782 1.29722 33.3444 1.65447 33.6876C2.0555 34.0131 2.52189 34.2484 3.02196 34.3776C4.07444 34.65 5.16235 34.7599 6.24804 34.7036C7.34249 34.6609 8.42748 34.4831 9.47835 34.1744C10.0033 34.0262 10.5241 33.8484 11.0406 33.6537C11.5571 33.4589 12.0694 33.2303 12.6071 33.0271C13.6792 32.6175 14.7819 32.2934 15.9051 32.0576C18.1497 31.6362 20.4377 31.494 22.7171 31.6342C23.8433 31.6808 24.9652 31.7739 26.0575 31.7485C27.1498 31.7231 28.2463 31.5453 28.7586 30.6901C29.0216 30.2533 29.1674 29.756 29.182 29.2464C29.207 28.7161 29.1514 28.185 29.0169 27.6715C28.7746 26.6211 28.1593 25.6944 27.2853 25.0635C26.827 24.7699 26.3276 24.5459 25.8035 24.3988C24.2073 23.8663 22.4931 23.7958 20.8585 24.1956C21.9381 23.8455 23.0758 23.7103 24.2074 23.7976C24.7794 23.8447 25.3462 23.9424 25.9009 24.0897C26.472 24.2216 27.02 24.4385 27.5266 24.7333C28.0325 25.0422 28.4657 25.4567 28.7967 25.9483C29.1295 26.436 29.3864 26.9713 29.5588 27.536C29.7327 28.105 29.8141 28.6982 29.8001 29.293C29.7973 29.9112 29.6339 30.5181 29.3259 31.0542C28.989 31.6079 28.4648 32.0224 27.8484 32.2227C27.2783 32.4027 26.6849 32.4983 26.0872 32.5063C24.9314 32.5529 23.8094 32.4767 22.7002 32.4513C20.4885 32.3345 18.2707 32.4866 16.0956 32.9043C15.0141 33.1225 13.9511 33.424 12.9161 33.8061C12.4038 33.9966 11.8916 34.2295 11.3539 34.4242C10.8164 34.6304 10.268 34.8071 9.71121 34.9534C8.58843 35.2581 7.43237 35.423 6.26921 35.4445C5.1065 35.4912 3.94394 35.3482 2.82721 35.0212C2.24006 34.8513 1.69785 34.5535 1.23957 34.149C0.786794 33.6997 0.524493 33.0932 0.507141 32.4555C0.525414 31.271 0.901779 30.1198 1.58673 29.1533C2.23268 28.1916 3.12245 27.4187 4.16506 26.9136C5.18712 26.4089 6.29985 26.1138 7.43771 26.0457Z" fill="white" fill-opacity="0.75"/>
<path d="M7.53088 19.4539C6.39888 19.8267 5.37354 20.4672 4.54189 21.3209C4.17015 21.7396 3.87623 22.2214 3.67398 22.7434C3.45736 23.2469 3.35333 23.7917 3.36915 24.3396C3.37014 24.5769 3.43466 24.8097 3.55602 25.0137C3.67737 25.2177 3.85113 25.3854 4.05924 25.4996C4.55164 25.7431 5.09331 25.8706 5.64265 25.8721C5.93477 25.8721 6.23113 25.8721 6.53596 25.8721C6.83164 25.8722 7.12708 25.8553 7.4208 25.8213C8.02122 25.7464 8.61264 25.6117 9.18626 25.4191C8.66921 25.7785 8.09729 26.0516 7.49277 26.2278C6.88552 26.393 6.26255 26.4937 5.63418 26.5284C4.95947 26.5907 4.28007 26.4785 3.66128 26.2024C3.32436 26.0301 3.0405 25.7697 2.83994 25.4488C2.64746 25.129 2.53558 24.7672 2.51394 24.3946C2.50302 23.7174 2.64787 23.0467 2.93731 22.4344C3.20337 21.8287 3.59267 21.2852 4.08041 20.8383C5.04414 20.0052 6.25858 19.5179 7.53088 19.4539Z" fill="#516CB1"/>
<path d="M7.53088 19.4539C6.39888 19.8267 5.37354 20.4672 4.54189 21.3209C4.17015 21.7396 3.87623 22.2214 3.67398 22.7434C3.45736 23.2469 3.35333 23.7917 3.36915 24.3396C3.37014 24.5769 3.43466 24.8097 3.55602 25.0137C3.67737 25.2177 3.85113 25.3854 4.05924 25.4996C4.55164 25.7431 5.09331 25.8706 5.64265 25.8721C5.93477 25.8721 6.23113 25.8721 6.53596 25.8721C6.83164 25.8722 7.12708 25.8553 7.4208 25.8213C8.02122 25.7464 8.61264 25.6117 9.18626 25.4191C8.66921 25.7785 8.09729 26.0516 7.49277 26.2278C6.88552 26.393 6.26255 26.4937 5.63418 26.5284C4.95947 26.5907 4.28007 26.4785 3.66128 26.2024C3.32436 26.0301 3.0405 25.7697 2.83994 25.4488C2.64746 25.129 2.53558 24.7672 2.51394 24.3946C2.50302 23.7174 2.64787 23.0467 2.93731 22.4344C3.20337 21.8287 3.59267 21.2852 4.08041 20.8383C5.04414 20.0052 6.25858 19.5179 7.53088 19.4539Z" fill="black" fill-opacity="0.5"/>
<path d="M7.53088 19.4539C6.39888 19.8267 5.37354 20.4672 4.54189 21.3209C4.17015 21.7396 3.87623 22.2214 3.67398 22.7434C3.45736 23.2469 3.35333 23.7917 3.36915 24.3396C3.37014 24.5769 3.43466 24.8097 3.55602 25.0137C3.67737 25.2177 3.85113 25.3854 4.05924 25.4996C4.55164 25.7431 5.09331 25.8706 5.64265 25.8721C5.93477 25.8721 6.23113 25.8721 6.53596 25.8721C6.83164 25.8722 7.12708 25.8553 7.4208 25.8213C8.02122 25.7464 8.61264 25.6117 9.18626 25.4191C8.66921 25.7785 8.09729 26.0516 7.49277 26.2278C6.88552 26.393 6.26255 26.4937 5.63418 26.5284C4.95947 26.5907 4.28007 26.4785 3.66128 26.2024C3.32436 26.0301 3.0405 25.7697 2.83994 25.4488C2.64746 25.129 2.53558 24.7672 2.51394 24.3946C2.50302 23.7174 2.64787 23.0467 2.93731 22.4344C3.20337 21.8287 3.59267 21.2852 4.08041 20.8383C5.04414 20.0052 6.25858 19.5179 7.53088 19.4539Z" fill="white" fill-opacity="0.75"/>
<path d="M19.1312 17.8704C19.6409 17.4866 20.2345 17.2293 20.863 17.1196C21.4916 17.0099 22.1372 17.0511 22.7468 17.2396C23.3796 17.454 23.9477 17.8255 24.3979 18.3192C24.8762 18.8474 25.1365 19.5373 25.1261 20.2498C25.0824 20.9404 24.8249 21.6002 24.3895 22.138C24.1922 22.3875 23.9801 22.6251 23.7544 22.8493C23.5293 23.0752 23.2858 23.282 23.0262 23.4674C21.9945 24.1998 20.7463 24.5637 19.4826 24.5004C20.6329 24.2407 21.7042 23.7093 22.6071 22.9509C23.0259 22.5681 23.4034 22.1424 23.7333 21.6808C24.0525 21.2636 24.2411 20.7613 24.2752 20.2371C24.3344 19.2379 23.4835 18.3277 22.497 17.8662C21.4157 17.4379 20.2115 17.4394 19.1312 17.8704Z" fill="#516CB1"/>
<path d="M19.1312 17.8704C19.6409 17.4866 20.2345 17.2293 20.863 17.1196C21.4916 17.0099 22.1372 17.0511 22.7468 17.2396C23.3796 17.454 23.9477 17.8255 24.3979 18.3192C24.8762 18.8474 25.1365 19.5373 25.1261 20.2498C25.0824 20.9404 24.8249 21.6002 24.3895 22.138C24.1922 22.3875 23.9801 22.6251 23.7544 22.8493C23.5293 23.0752 23.2858 23.282 23.0262 23.4674C21.9945 24.1998 20.7463 24.5637 19.4826 24.5004C20.6329 24.2407 21.7042 23.7093 22.6071 22.9509C23.0259 22.5681 23.4034 22.1424 23.7333 21.6808C24.0525 21.2636 24.2411 20.7613 24.2752 20.2371C24.3344 19.2379 23.4835 18.3277 22.497 17.8662C21.4157 17.4379 20.2115 17.4394 19.1312 17.8704Z" fill="black" fill-opacity="0.5"/>
<path d="M19.1312 17.8704C19.6409 17.4866 20.2345 17.2293 20.863 17.1196C21.4916 17.0099 22.1372 17.0511 22.7468 17.2396C23.3796 17.454 23.9477 17.8255 24.3979 18.3192C24.8762 18.8474 25.1365 19.5373 25.1261 20.2498C25.0824 20.9404 24.8249 21.6002 24.3895 22.138C24.1922 22.3875 23.9801 22.6251 23.7544 22.8493C23.5293 23.0752 23.2858 23.282 23.0262 23.4674C21.9945 24.1998 20.7463 24.5637 19.4826 24.5004C20.6329 24.2407 21.7042 23.7093 22.6071 22.9509C23.0259 22.5681 23.4034 22.1424 23.7333 21.6808C24.0525 21.2636 24.2411 20.7613 24.2752 20.2371C24.3344 19.2379 23.4835 18.3277 22.497 17.8662C21.4157 17.4379 20.2115 17.4394 19.1312 17.8704Z" fill="white" fill-opacity="0.75"/>
<path d="M9.90598 16.7908C9.33646 17.1456 8.87632 17.6511 8.5766 18.2515C8.30988 18.8188 8.15323 19.5216 8.38608 19.8433C8.55152 20.0419 8.77045 20.1888 9.0169 20.2667C9.31327 20.3724 9.62207 20.4393 9.93562 20.4657C10.624 20.5081 11.3149 20.4797 11.9974 20.381C11.3866 20.8043 10.676 21.0612 9.93562 21.1261C9.54607 21.1695 9.15192 21.1437 8.77135 21.0499C8.3361 20.9411 7.95176 20.6854 7.68329 20.326C7.5456 20.1205 7.46389 19.8826 7.4462 19.6359C7.43385 19.418 7.45527 19.1995 7.50971 18.9881C7.6108 18.6067 7.78005 18.2467 8.00929 17.9255C8.22454 17.6104 8.5056 17.3458 8.83306 17.1499C9.16051 16.954 9.52658 16.8315 9.90598 16.7908Z" fill="#516CB1"/>
<path d="M9.90598 16.7908C9.33646 17.1456 8.87632 17.6511 8.5766 18.2515C8.30988 18.8188 8.15323 19.5216 8.38608 19.8433C8.55152 20.0419 8.77045 20.1888 9.0169 20.2667C9.31327 20.3724 9.62207 20.4393 9.93562 20.4657C10.624 20.5081 11.3149 20.4797 11.9974 20.381C11.3866 20.8043 10.676 21.0612 9.93562 21.1261C9.54607 21.1695 9.15192 21.1437 8.77135 21.0499C8.3361 20.9411 7.95176 20.6854 7.68329 20.326C7.5456 20.1205 7.46389 19.8826 7.4462 19.6359C7.43385 19.418 7.45527 19.1995 7.50971 18.9881C7.6108 18.6067 7.78005 18.2467 8.00929 17.9255C8.22454 17.6104 8.5056 17.3458 8.83306 17.1499C9.16051 16.954 9.52658 16.8315 9.90598 16.7908Z" fill="black" fill-opacity="0.5"/>
<path d="M9.90598 16.7908C9.33646 17.1456 8.87632 17.6511 8.5766 18.2515C8.30988 18.8188 8.15323 19.5216 8.38608 19.8433C8.55152 20.0419 8.77045 20.1888 9.0169 20.2667C9.31327 20.3724 9.62207 20.4393 9.93562 20.4657C10.624 20.5081 11.3149 20.4797 11.9974 20.381C11.3866 20.8043 10.676 21.0612 9.93562 21.1261C9.54607 21.1695 9.15192 21.1437 8.77135 21.0499C8.3361 20.9411 7.95176 20.6854 7.68329 20.326C7.5456 20.1205 7.46389 19.8826 7.4462 19.6359C7.43385 19.418 7.45527 19.1995 7.50971 18.9881C7.6108 18.6067 7.78005 18.2467 8.00929 17.9255C8.22454 17.6104 8.5056 17.3458 8.83306 17.1499C9.16051 16.954 9.52658 16.8315 9.90598 16.7908Z" fill="white" fill-opacity="0.75"/>
<path d="M16.0322 15.3472C16.363 15.1227 16.7447 14.9846 17.1425 14.9454C17.5403 14.9063 17.9417 14.9672 18.3099 15.1228C18.6971 15.2927 19.0382 15.5525 19.3048 15.8806C19.6127 16.2313 19.7787 16.6841 19.7705 17.1507C19.743 17.6034 19.5709 18.0353 19.2794 18.3827C19.017 18.6988 18.6965 18.9618 18.3353 19.1575C17.6539 19.5276 16.8738 19.6756 16.1041 19.5809C16.7748 19.349 17.4048 19.0133 17.9712 18.5859C18.2215 18.4148 18.4349 18.195 18.5985 17.9397C18.7622 17.6844 18.8728 17.3988 18.9238 17.0999C18.9619 16.63 18.5004 16.0288 18.0093 15.6901C17.4102 15.3493 16.711 15.2281 16.0322 15.3472Z" fill="#516CB1"/>
<path d="M16.0322 15.3472C16.363 15.1227 16.7447 14.9846 17.1425 14.9454C17.5403 14.9063 17.9417 14.9672 18.3099 15.1228C18.6971 15.2927 19.0382 15.5525 19.3048 15.8806C19.6127 16.2313 19.7787 16.6841 19.7705 17.1507C19.743 17.6034 19.5709 18.0353 19.2794 18.3827C19.017 18.6988 18.6965 18.9618 18.3353 19.1575C17.6539 19.5276 16.8738 19.6756 16.1041 19.5809C16.7748 19.349 17.4048 19.0133 17.9712 18.5859C18.2215 18.4148 18.4349 18.195 18.5985 17.9397C18.7622 17.6844 18.8728 17.3988 18.9238 17.0999C18.9619 16.63 18.5004 16.0288 18.0093 15.6901C17.4102 15.3493 16.711 15.2281 16.0322 15.3472Z" fill="black" fill-opacity="0.5"/>
<path d="M16.0322 15.3472C16.363 15.1227 16.7447 14.9846 17.1425 14.9454C17.5403 14.9063 17.9417 14.9672 18.3099 15.1228C18.6971 15.2927 19.0382 15.5525 19.3048 15.8806C19.6127 16.2313 19.7787 16.6841 19.7705 17.1507C19.743 17.6034 19.5709 18.0353 19.2794 18.3827C19.017 18.6988 18.6965 18.9618 18.3353 19.1575C17.6539 19.5276 16.8738 19.6756 16.1041 19.5809C16.7748 19.349 17.4048 19.0133 17.9712 18.5859C18.2215 18.4148 18.4349 18.195 18.5985 17.9397C18.7622 17.6844 18.8728 17.3988 18.9238 17.0999C18.9619 16.63 18.5004 16.0288 18.0093 15.6901C17.4102 15.3493 16.711 15.2281 16.0322 15.3472Z" fill="white" fill-opacity="0.75"/>
<path d="M11.4936 14.6274C11.3541 14.8925 11.2773 15.1862 11.2692 15.4857C11.2612 15.7851 11.322 16.0825 11.447 16.3548C11.5712 16.6001 11.7505 16.8134 11.9709 16.9779C12.1912 17.1424 12.4466 17.2537 12.7171 17.3031C13.2523 17.3781 13.7962 17.2497 14.2413 16.9432C14.6973 16.675 15.0301 16.2388 15.1685 15.7282C15.3239 15.2145 15.2985 14.6631 15.0965 14.1659C14.8749 13.671 14.4718 13.2801 13.9703 13.0736C13.697 12.9532 13.4137 12.8569 13.1236 12.7857C12.838 12.705 12.5438 12.6581 12.2472 12.646C11.629 12.6211 11.0113 12.7057 10.4225 12.8958C11.2472 12.3429 12.2451 12.1096 13.2294 12.2396C13.5614 12.2811 13.8888 12.3534 14.2074 12.4555C14.5527 12.5658 14.8725 12.744 15.1481 12.9795C15.4236 13.2151 15.6493 13.5033 15.812 13.8272C16.1142 14.4915 16.1727 15.241 15.9771 15.9441C15.8784 16.3013 15.7092 16.6352 15.4794 16.9261C15.2496 17.2169 14.964 17.4588 14.6393 17.6376C14.3285 17.8251 13.9836 17.9489 13.6245 18.002C13.2655 18.0551 12.8995 18.0362 12.5478 17.9466C12.2024 17.8449 11.8871 17.6601 11.6296 17.4084C11.372 17.1568 11.18 16.8459 11.0702 16.5029C10.9746 16.1802 10.9633 15.8383 11.0374 15.51C11.1115 15.1816 11.2686 14.8777 11.4936 14.6274Z" fill="#516CB1"/>
<path d="M11.4936 14.6274C11.3541 14.8925 11.2773 15.1862 11.2692 15.4857C11.2612 15.7851 11.322 16.0825 11.447 16.3548C11.5712 16.6001 11.7505 16.8134 11.9709 16.9779C12.1912 17.1424 12.4466 17.2537 12.7171 17.3031C13.2523 17.3781 13.7962 17.2497 14.2413 16.9432C14.6973 16.675 15.0301 16.2388 15.1685 15.7282C15.3239 15.2145 15.2985 14.6631 15.0965 14.1659C14.8749 13.671 14.4718 13.2801 13.9703 13.0736C13.697 12.9532 13.4137 12.8569 13.1236 12.7857C12.838 12.705 12.5438 12.6581 12.2472 12.646C11.629 12.6211 11.0113 12.7057 10.4225 12.8958C11.2472 12.3429 12.2451 12.1096 13.2294 12.2396C13.5614 12.2811 13.8888 12.3534 14.2074 12.4555C14.5527 12.5658 14.8725 12.744 15.1481 12.9795C15.4236 13.2151 15.6493 13.5033 15.812 13.8272C16.1142 14.4915 16.1727 15.241 15.9771 15.9441C15.8784 16.3013 15.7092 16.6352 15.4794 16.9261C15.2496 17.2169 14.964 17.4588 14.6393 17.6376C14.3285 17.8251 13.9836 17.9489 13.6245 18.002C13.2655 18.0551 12.8995 18.0362 12.5478 17.9466C12.2024 17.8449 11.8871 17.6601 11.6296 17.4084C11.372 17.1568 11.18 16.8459 11.0702 16.5029C10.9746 16.1802 10.9633 15.8383 11.0374 15.51C11.1115 15.1816 11.2686 14.8777 11.4936 14.6274Z" fill="black" fill-opacity="0.5"/>
<path d="M11.4936 14.6274C11.3541 14.8925 11.2773 15.1862 11.2692 15.4857C11.2612 15.7851 11.322 16.0825 11.447 16.3548C11.5712 16.6001 11.7505 16.8134 11.9709 16.9779C12.1912 17.1424 12.4466 17.2537 12.7171 17.3031C13.2523 17.3781 13.7962 17.2497 14.2413 16.9432C14.6973 16.675 15.0301 16.2388 15.1685 15.7282C15.3239 15.2145 15.2985 14.6631 15.0965 14.1659C14.8749 13.671 14.4718 13.2801 13.9703 13.0736C13.697 12.9532 13.4137 12.8569 13.1236 12.7857C12.838 12.705 12.5438 12.6581 12.2472 12.646C11.629 12.6211 11.0113 12.7057 10.4225 12.8958C11.2472 12.3429 12.2451 12.1096 13.2294 12.2396C13.5614 12.2811 13.8888 12.3534 14.2074 12.4555C14.5527 12.5658 14.8725 12.744 15.1481 12.9795C15.4236 13.2151 15.6493 13.5033 15.812 13.8272C16.1142 14.4915 16.1727 15.241 15.9771 15.9441C15.8784 16.3013 15.7092 16.6352 15.4794 16.9261C15.2496 17.2169 14.964 17.4588 14.6393 17.6376C14.3285 17.8251 13.9836 17.9489 13.6245 18.002C13.2655 18.0551 12.8995 18.0362 12.5478 17.9466C12.2024 17.8449 11.8871 17.6601 11.6296 17.4084C11.372 17.1568 11.18 16.8459 11.0702 16.5029C10.9746 16.1802 10.9633 15.8383 11.0374 15.51C11.1115 15.1816 11.2686 14.8777 11.4936 14.6274Z" fill="white" fill-opacity="0.75"/>
<path d="M13.9111 11.1897C13.9612 10.834 14.0625 10.4875 14.2117 10.1609C14.4912 9.53312 14.8797 8.95979 15.359 8.46738C15.6079 8.20873 15.8932 7.98767 16.2057 7.81116C16.1556 8.16677 16.0544 8.51328 15.9051 8.83995C15.7664 9.15245 15.5992 9.45149 15.4056 9.73326C15.2134 10.0169 14.9951 10.2819 14.7536 10.525C14.5065 10.7863 14.2227 11.0102 13.9111 11.1897Z" fill="white"/>
<path d="M27.6283 13.4547C27.4774 13.8068 27.2778 14.136 27.0355 14.4327C26.808 14.7181 26.5573 14.9843 26.2862 15.2286C26.0135 15.4722 25.7203 15.6918 25.4098 15.8849C25.0903 16.0943 24.7424 16.2568 24.3768 16.3675C24.5268 16.0159 24.7249 15.6868 24.9653 15.3895C25.1932 15.1044 25.4454 14.8396 25.7189 14.5978C25.989 14.3518 26.2809 14.1307 26.591 13.9374C26.9137 13.7309 27.2625 13.5686 27.6283 13.4547Z" fill="white"/>
<path d="M14.7959 9.89415C14.1858 9.87223 13.606 9.62308 13.1702 9.19559C12.7099 8.75626 12.4052 8.17903 12.3021 7.55117C12.199 6.92331 12.3031 6.27895 12.5986 5.71549C12.8692 5.16821 13.3364 4.7433 13.9068 4.52582C13.5917 4.96117 13.3553 5.44835 13.2083 5.96527C13.0837 6.43931 13.0604 6.93428 13.1399 7.41792C13.2194 7.90156 13.4 8.36302 13.6698 8.77222C13.9753 9.21029 14.3567 9.59023 14.7959 9.89415Z" fill="white"/>
<path d="M12.9712 5.63084C12.5956 5.34926 12.2922 4.98249 12.0861 4.56073C11.88 4.13896 11.7771 3.67428 11.7857 3.20493C11.8415 2.71915 12.068 2.26899 12.425 1.93482C12.7802 1.60885 13.1959 1.35569 13.6486 1.18969C14.0989 1.01323 14.5752 0.911698 15.0584 0.889096C15.5664 0.889096 16.0025 1.0034 16.4343 1.01187C16.8741 1.02566 17.3143 1.00585 17.751 0.952599C18.1826 0.923659 18.609 0.842634 19.0211 0.711281C19.2209 0.642282 19.4149 0.557332 19.6011 0.457257C19.8093 0.332655 20.0241 0.219585 20.2447 0.11856C20.5153 0.0198112 20.8065 -0.00930448 21.0914 0.0338869C21.3427 0.0847799 21.5861 0.168773 21.8154 0.283674C21.9911 0.353021 22.177 0.393067 22.3657 0.402217C22.5388 0.407631 22.7109 0.374366 22.8695 0.304843C23.1001 0.207891 23.3398 0.134141 23.585 0.0846893C23.842 0.0389492 24.1036 0.0247357 24.364 0.0423561C25.3405 0.174089 26.268 0.549754 27.0609 1.13465L27.6367 1.52415C27.8393 1.65978 28.0331 1.80826 28.2167 1.96868C28.2874 2.03295 28.3624 2.09237 28.4411 2.14651C28.5245 2.20044 28.6107 2.2499 28.6994 2.29468C28.8801 2.38812 29.0685 2.46601 29.2624 2.52754C29.6931 2.638 30.1299 2.72282 30.5707 2.78156C30.8467 2.84485 31.1073 2.9629 31.3369 3.12872C31.5626 3.28441 31.7626 3.4744 31.9297 3.6918C32.2329 4.11812 32.4315 4.60976 32.5097 5.12703C32.6088 5.65914 32.5423 6.20883 32.3192 6.70196C32.2049 6.94329 32.0609 7.1465 31.972 7.31162C31.8883 7.45215 31.8472 7.6139 31.8535 7.77732C31.8512 7.93817 31.8937 8.09647 31.9762 8.23456C32.0952 8.40497 32.2283 8.56501 32.3742 8.71297C32.7004 9.08863 32.9583 9.51849 33.1363 9.98308C33.3439 10.4354 33.4672 10.9217 33.5004 11.4183C33.5106 11.6856 33.4719 11.9525 33.3861 12.2058C33.3002 12.4727 33.1454 12.7122 32.9373 12.9001C32.5393 13.2473 32.1879 13.4462 31.8704 13.7468C31.5526 14.0449 31.2686 14.3772 31.0237 14.7375C30.7696 15.0889 30.6003 15.5208 30.2828 15.9103C30.1215 16.0945 29.9381 16.258 29.7366 16.3971C29.5474 16.5398 29.3463 16.6659 29.1354 16.7739C28.922 16.8995 28.6836 16.9766 28.4371 17C28.1906 17.0235 27.9419 16.9925 27.7087 16.9094C27.2677 16.7123 26.9118 16.3639 26.7053 15.9272C26.5001 15.5126 26.3751 15.063 26.337 14.6021C26.4154 15.0517 26.5777 15.4825 26.8154 15.8722C27.0274 16.2609 27.3712 16.5611 27.7849 16.7189C27.9873 16.775 28.1995 16.7859 28.4066 16.7508C28.6137 16.7157 28.8105 16.6354 28.983 16.5157C29.3549 16.2929 29.6845 16.0063 29.9568 15.6689C30.2023 15.3472 30.3547 14.9026 30.613 14.492C30.8599 14.0859 31.1526 13.7095 31.4851 13.37C31.8069 13.0186 32.2387 12.735 32.5181 12.4683C32.6469 12.3463 32.7393 12.1909 32.7849 12.0195C32.8389 11.837 32.8589 11.6461 32.8441 11.4564C32.7962 11.0421 32.6758 10.6394 32.4885 10.2667C32.328 9.88067 32.1017 9.52541 31.8196 9.21678C31.6419 9.04114 31.4803 8.84985 31.3369 8.64523C31.1746 8.39212 31.0852 8.09912 31.0787 7.79849C31.0706 7.50428 31.1376 7.21286 31.2734 6.95175C31.3962 6.71043 31.5148 6.52838 31.591 6.36327C31.72 6.00079 31.7574 5.61202 31.6998 5.2316C31.6421 4.85118 31.4913 4.49092 31.2607 4.18291C31.0602 3.88874 30.7591 3.67796 30.414 3.59019C29.9501 3.53288 29.4905 3.4452 29.0381 3.3277C28.7982 3.24979 28.5659 3.15061 28.3437 3.03135C28.2286 2.97281 28.117 2.90779 28.0093 2.83659C27.9009 2.7602 27.7976 2.67676 27.7002 2.58681C27.5394 2.44797 27.3712 2.31795 27.1964 2.19731L26.6375 1.81628C25.963 1.30525 25.1738 0.966632 24.3386 0.829825C24.1431 0.80856 23.9457 0.80856 23.7502 0.829825C23.5488 0.868449 23.3517 0.926579 23.1617 1.0034C22.8914 1.10371 22.6022 1.14276 22.3149 1.11771C22.0472 1.09644 21.7844 1.03359 21.5359 0.931429C21.3586 0.837072 21.1711 0.763216 20.9771 0.711281C20.8116 0.68409 20.642 0.695679 20.4817 0.745145C20.3293 0.79595 20.1261 0.922967 19.906 1.02881C19.6846 1.13653 19.4553 1.22712 19.2201 1.29977C18.7577 1.42917 18.2816 1.50307 17.8018 1.51991C17.3314 1.56227 16.8582 1.56227 16.3878 1.51991C15.9093 1.48181 15.4521 1.34633 15.0499 1.33363C14.6184 1.33316 14.1896 1.40177 13.7798 1.53685C13.3636 1.65761 12.9752 1.859 12.6367 2.12957C12.3017 2.3986 12.0772 2.78128 12.0059 3.20493C11.9485 3.63821 12.0161 4.07886 12.2006 4.47504C12.3792 4.90711 12.641 5.29983 12.9712 5.63084Z" fill="white"/>
<path d="M15.1134 4.50043C15.3456 4.8185 15.6063 5.11468 15.8924 5.38527C16.1451 5.61975 16.4303 5.81653 16.7391 5.96952C17.423 6.26762 18.1509 6.45209 18.8941 6.51567C18.5479 6.78808 18.1271 6.94899 17.6875 6.97714C17.2312 7.01872 16.7722 6.93222 16.3623 6.72735C15.9473 6.53352 15.6036 6.21437 15.3795 5.81486C15.1555 5.41535 15.0624 4.95563 15.1134 4.50043Z" fill="white"/>
<path d="M19.6393 4.70361C19.7785 5.3935 20.0487 6.0503 20.4352 6.63842C20.8091 7.19872 21.3113 7.66172 21.9001 7.98896C22.4959 8.30917 23.1391 8.53214 23.8053 8.64942C24.1382 8.72028 24.4745 8.77397 24.8129 8.8103C25.1481 8.83975 25.4853 8.83975 25.8205 8.8103C26.2185 8.78189 26.6186 8.81618 27.0059 8.91191C27.3818 9.01237 27.7453 9.15437 28.0898 9.33528C28.7666 9.69595 29.3539 10.2037 29.8087 10.8213C30.0767 11.1166 30.2839 11.4619 30.4183 11.8374C30.4812 12.0643 30.4663 12.3058 30.376 12.5233C30.2977 12.7221 30.1729 12.8993 30.0119 13.0398C29.8707 13.179 29.6982 13.2823 29.5088 13.3409C29.3194 13.3995 29.1186 13.4116 28.9235 13.3763C28.7284 13.341 28.5447 13.2594 28.3878 13.1381C28.2309 13.0169 28.1054 12.8598 28.022 12.6799C28.132 12.8115 28.2674 12.9195 28.4202 12.9974C28.573 13.0752 28.74 13.1213 28.9111 13.1329C29.0655 13.1356 29.2184 13.1026 29.3579 13.0365C29.4974 12.9704 29.6198 12.873 29.7155 12.7519C29.8111 12.6553 29.8779 12.5341 29.9086 12.4018C29.9392 12.2695 29.9325 12.1312 29.8891 12.0025C29.7359 11.7228 29.5402 11.4686 29.3091 11.2489C28.8692 10.7468 28.332 10.3392 27.7299 10.0508C27.4339 9.90946 27.1248 9.79744 26.807 9.71631C26.4991 9.64487 26.1815 9.62484 25.8671 9.65704C25.4894 9.68652 25.1101 9.68652 24.7324 9.65704C24.3599 9.61455 23.9907 9.54666 23.6275 9.45383C22.8884 9.28808 22.1855 8.98972 21.5529 8.57321C20.9201 8.14842 20.4105 7.5643 20.0754 6.87973C19.7543 6.20091 19.6046 5.45373 19.6393 4.70361Z" fill="white"/>
<path d="M14.4022 11.3675C15.3402 10.9852 16.3627 10.8581 17.3658 10.9992C18.3887 11.1422 19.3666 11.5126 20.2277 12.083C20.6476 12.3677 21.0479 12.6803 21.4259 13.0186C21.8039 13.3599 22.151 13.7339 22.4631 14.1363C23.0832 14.9288 23.5355 15.8392 23.7925 16.812C23.2487 16.0127 22.6368 15.262 21.9636 14.5682C21.6295 14.236 21.2776 13.9222 20.9094 13.6283C20.5447 13.3245 20.1631 13.0418 19.7663 12.7816C18.9883 12.2611 18.1302 11.872 17.226 11.63C16.3033 11.4013 15.3513 11.3128 14.4022 11.3675Z" fill="white"/>
<path d="M23.2929 26.1939L23.8306 27.1677" stroke="white" stroke-width="0.65235" stroke-miterlimit="10"/>
<path d="M13.2209 25.5461L12.5732 26.7358" stroke="white" stroke-width="0.65235" stroke-miterlimit="10"/>
<path d="M16.464 21.5453L17.2218 22.392" stroke="white" stroke-width="0.65235" stroke-miterlimit="10"/>
<path d="M6.84503 30.3006L7.2684 31.2743" stroke="white" stroke-width="0.65235" stroke-miterlimit="10"/>
<path d="M17.4378 28.8865L17.0144 30.0762" stroke="white" stroke-width="0.65235" stroke-miterlimit="10"/>
<path d="M7.06097 22.3201L7.8188 23.7257" stroke="white" stroke-width="0.65235" stroke-miterlimit="10"/>
</g>
<path d="M41.437 35.8067C43.657 36.0267 45.577 36.8267 45.577 39.4267C45.577 42.9467 42.517 43.1467 37.677 43.1467H34.497V42.9467C35.017 42.9467 35.017 42.3667 35.017 42.3667V29.9067C35.017 29.9067 35.017 29.3467 34.497 29.3467V29.1267H37.137C41.777 29.1267 44.977 28.9267 44.977 32.5867C44.977 34.5867 43.637 35.4467 41.437 35.8067ZM36.857 29.4467V35.7267C36.857 35.7267 38.757 35.7067 39.417 35.7067C41.377 35.6067 42.997 35.0867 42.997 32.5867C42.997 29.1267 40.117 29.4467 37.137 29.4467H36.857ZM38.597 42.8267C39.657 42.8267 43.617 43.1467 43.617 39.4267C43.617 35.7267 40.337 36.0467 37.377 36.0467H36.857V42.8267H38.597ZM89.9722 42.3667C90.1722 42.8067 90.3722 42.9467 90.6922 42.9467V43.1467H87.6122V42.9467C88.0322 42.9467 88.1522 42.7067 88.0322 42.4067L86.2322 38.1267H80.5522L78.9122 42.0267C78.7322 42.4867 78.9722 42.9467 79.6722 42.9467V43.1467H77.1322V42.9467C77.7722 42.9667 78.3522 42.5867 78.5922 41.9867L84.0722 28.9267H84.2322L89.9722 42.3667ZM80.6922 37.8067H86.0922L83.3722 31.4067L80.6922 37.8067Z" fill="white"/>
<path d="M55.13 42.3667C55.13 42.3667 55.13 42.9467 55.65 42.9467V43.1467H53.67C53.45 43.1467 53.27 42.9667 53.27 42.7467V41.3667C52.67 42.9467 51.47 43.3667 50.49 43.3667C50.27 43.3667 46.99 43.5867 46.99 41.0267C46.99 39.3467 48.41 38.6267 51.23 37.3867C52.67 36.7667 53.27 36.4867 53.27 35.7267V35.5267C53.27 34.6667 52.55 33.7067 51.17 33.7067C49.55 33.7067 48.85 34.9067 48.85 36.2467L47.35 35.7267C47.63 34.9267 48.67 33.3867 51.45 33.3867C54.17 33.3867 55.13 35.0667 55.13 36.4267V42.3667ZM53.27 40.1867V36.5867C52.99 36.8867 52.43 37.1467 51.45 37.6267C49.25 38.6867 48.97 40.4467 48.97 41.1267C48.97 41.7867 49.23 43.0467 50.71 43.0467C52.75 43.0467 53.25 40.7267 53.27 40.1867ZM66.0062 42.4467C66.1062 42.5867 66.3862 42.9467 66.6662 42.9467V43.1467H64.6462C64.3862 43.1467 64.1262 43.0267 63.9862 42.7867L60.8862 38.1267L59.8462 39.2867V42.3667C59.8462 42.3667 59.8462 42.9467 60.3462 42.9467V43.1467H57.4662V42.9467C57.9862 42.9467 57.9862 42.3667 57.9862 42.3667V29.9067C57.9862 29.9067 57.9862 29.3467 57.4662 29.3467V29.1267H59.4462C59.5462 29.1267 59.6462 29.1867 59.7262 29.2467C59.7862 29.3267 59.8462 29.4267 59.8462 29.5267V38.8067L62.8062 35.5667C63.3262 34.9867 63.4062 34.6267 63.4062 34.3667C63.4262 34.2267 63.3662 34.0867 63.2662 33.9867C63.1862 33.8667 63.0462 33.8067 62.8862 33.8067V33.5867H65.7662V33.8067C65.0262 33.8067 63.6862 35.1267 63.0262 35.8067L62.1662 36.7267L66.0062 42.4467ZM72.5676 42.9467C73.9076 42.8467 75.0876 41.9867 75.5676 40.7467L75.8876 40.8267C75.8876 40.8267 75.1476 43.3667 71.6476 43.3667C68.3276 43.3667 66.9876 41.1267 66.9876 38.3667C66.9876 35.6267 68.3276 33.3867 71.6476 33.3867C75.8076 33.3867 76.3276 36.7667 76.3276 38.1667H68.9676C68.9676 38.2667 68.9676 38.3467 68.9676 38.3667C68.9676 40.9467 70.0276 43.1867 72.5676 42.9467ZM71.6476 33.7067C69.9876 33.7067 69.0876 35.5267 68.9676 37.8467H74.3276V37.8267C74.1476 35.0067 73.1476 33.7067 71.6476 33.7067ZM96.4612 37.7467C98.5612 38.4667 99.4012 39.1667 99.4012 40.7267C99.4012 42.6067 97.4612 43.3667 95.5812 43.3667C94.0412 43.4067 92.5612 42.7667 91.5212 41.6267L92.5812 40.5067C92.7612 41.9867 94.0412 43.0867 95.5612 43.0467C96.9812 43.0467 98.0212 42.6067 98.0212 41.4267C98.0212 40.2667 96.5412 39.6667 94.9412 39.1467C92.8212 38.4667 91.7812 37.8467 91.7812 36.1867C91.7812 34.2467 93.5212 33.3867 95.4612 33.3867C96.9012 33.3467 98.2812 33.9067 99.2412 34.9667L98.2812 35.9867C98.2812 35.5867 97.9812 33.7067 95.4412 33.7067C94.4812 33.7067 93.1012 34.0867 93.1012 35.3067C93.1012 36.8067 95.2012 37.3267 96.4612 37.7467ZM105.739 37.7467C107.839 38.4667 108.679 39.1667 108.679 40.7267C108.679 42.6067 106.739 43.3667 104.859 43.3667C103.319 43.4067 101.839 42.7667 100.799 41.6267L101.859 40.5067C102.039 41.9867 103.319 43.0867 104.839 43.0467C106.259 43.0467 107.299 42.6067 107.299 41.4267C107.299 40.2667 105.819 39.6667 104.219 39.1467C102.099 38.4667 101.059 37.8467 101.059 36.1867C101.059 34.2467 102.799 33.3867 104.739 33.3867C106.179 33.3467 107.559 33.9067 108.519 34.9667L107.559 35.9867C107.559 35.5867 107.259 33.7067 104.719 33.7067C103.759 33.7067 102.379 34.0867 102.379 35.3067C102.379 36.8067 104.479 37.3267 105.739 37.7467ZM111.736 32.2667C111.036 32.2667 110.476 31.7067 110.476 31.0067C110.476 30.3067 111.036 29.7467 111.736 29.7467C112.076 29.7467 112.396 29.8667 112.636 30.1067C112.996 30.4667 113.116 31.0067 112.916 31.4867C112.716 31.9667 112.256 32.2667 111.736 32.2667ZM112.756 42.3667C112.756 42.3667 112.756 42.9467 113.256 42.9467V43.1467H110.376V42.9467C110.896 42.9467 110.896 42.3667 110.896 42.3667V34.3667C110.896 34.3667 110.896 33.8067 110.376 33.8067V33.5867H112.356C112.576 33.5867 112.756 33.7667 112.756 33.9867V42.3667ZM119.821 37.7467C121.921 38.4667 122.761 39.1667 122.761 40.7267C122.761 42.6067 120.821 43.3667 118.941 43.3667C117.401 43.4067 115.921 42.7667 114.881 41.6267L115.941 40.5067C116.121 41.9867 117.401 43.0867 118.921 43.0467C120.341 43.0467 121.381 42.6067 121.381 41.4267C121.381 40.2667 119.901 39.6667 118.301 39.1467C116.181 38.4667 115.141 37.8467 115.141 36.1867C115.141 34.2467 116.881 33.3867 118.821 33.3867C120.261 33.3467 121.641 33.9067 122.601 34.9667L121.641 35.9867C121.641 35.5867 121.341 33.7067 118.801 33.7067C117.841 33.7067 116.461 34.0867 116.461 35.3067C116.461 36.8067 118.561 37.3267 119.821 37.7467ZM129.578 42.7667L129.758 42.9867C129.338 43.2467 128.818 43.3867 128.318 43.3667C125.338 43.3667 125.378 40.8267 125.378 40.8267V33.9067H123.958V33.5867H125.378V31.5267L127.238 30.6267V33.5867H129.698V33.9067H127.238V41.2467C127.238 41.6667 127.378 43.0267 128.658 43.0267C128.978 43.0267 129.318 42.9467 129.578 42.7667ZM138.919 42.3667C138.919 42.3667 138.919 42.9467 139.439 42.9467V43.1467H137.459C137.239 43.1467 137.059 42.9667 137.059 42.7467V41.3667C136.459 42.9467 135.259 43.3667 134.279 43.3667C134.059 43.3667 130.779 43.5867 130.779 41.0267C130.779 39.3467 132.199 38.6267 135.019 37.3867C136.459 36.7667 137.059 36.4867 137.059 35.7267V35.5267C137.059 34.6667 136.339 33.7067 134.959 33.7067C133.339 33.7067 132.639 34.9067 132.639 36.2467L131.139 35.7267C131.419 34.9267 132.459 33.3867 135.239 33.3867C137.959 33.3867 138.919 35.0667 138.919 36.4267V42.3667ZM137.059 40.1867V36.5867C136.779 36.8867 136.219 37.1467 135.239 37.6267C133.039 38.6867 132.759 40.4467 132.759 41.1267C132.759 41.7867 133.019 43.0467 134.499 43.0467C136.539 43.0467 137.039 40.7267 137.059 40.1867ZM150.095 42.3667C150.095 42.3667 150.095 42.9467 150.615 42.9467V43.1467H147.735V42.9467C148.235 42.9467 148.235 42.3667 148.235 42.3667V35.5267C148.235 34.6667 147.535 33.7267 146.275 33.7267C144.615 33.7267 143.615 35.3067 143.615 36.1467V42.3667C143.615 42.3667 143.615 42.9467 144.115 42.9467V43.1467H141.235V42.9467C141.755 42.9467 141.755 42.3667 141.755 42.3667V34.3667C141.755 34.3667 141.755 33.8067 141.235 33.8067V33.5867H143.215C143.435 33.5867 143.615 33.7667 143.615 33.9867V35.0867C144.175 33.9867 145.315 33.3267 146.555 33.3867C148.375 33.3867 150.095 34.4467 150.095 36.4667V42.3667ZM157.351 42.7667L157.531 42.9867C157.111 43.2467 156.591 43.3867 156.091 43.3667C153.111 43.3667 153.151 40.8267 153.151 40.8267V33.9067H151.731V33.5867H153.151V31.5267L155.011 30.6267V33.5867H157.471V33.9067H155.011V41.2467C155.011 41.6667 155.151 43.0267 156.431 43.0267C156.751 43.0267 157.091 42.9467 157.351 42.7667Z" fill="#516CB1"/>
<path d="M55.13 42.3667C55.13 42.3667 55.13 42.9467 55.65 42.9467V43.1467H53.67C53.45 43.1467 53.27 42.9667 53.27 42.7467V41.3667C52.67 42.9467 51.47 43.3667 50.49 43.3667C50.27 43.3667 46.99 43.5867 46.99 41.0267C46.99 39.3467 48.41 38.6267 51.23 37.3867C52.67 36.7667 53.27 36.4867 53.27 35.7267V35.5267C53.27 34.6667 52.55 33.7067 51.17 33.7067C49.55 33.7067 48.85 34.9067 48.85 36.2467L47.35 35.7267C47.63 34.9267 48.67 33.3867 51.45 33.3867C54.17 33.3867 55.13 35.0667 55.13 36.4267V42.3667ZM53.27 40.1867V36.5867C52.99 36.8867 52.43 37.1467 51.45 37.6267C49.25 38.6867 48.97 40.4467 48.97 41.1267C48.97 41.7867 49.23 43.0467 50.71 43.0467C52.75 43.0467 53.25 40.7267 53.27 40.1867ZM66.0062 42.4467C66.1062 42.5867 66.3862 42.9467 66.6662 42.9467V43.1467H64.6462C64.3862 43.1467 64.1262 43.0267 63.9862 42.7867L60.8862 38.1267L59.8462 39.2867V42.3667C59.8462 42.3667 59.8462 42.9467 60.3462 42.9467V43.1467H57.4662V42.9467C57.9862 42.9467 57.9862 42.3667 57.9862 42.3667V29.9067C57.9862 29.9067 57.9862 29.3467 57.4662 29.3467V29.1267H59.4462C59.5462 29.1267 59.6462 29.1867 59.7262 29.2467C59.7862 29.3267 59.8462 29.4267 59.8462 29.5267V38.8067L62.8062 35.5667C63.3262 34.9867 63.4062 34.6267 63.4062 34.3667C63.4262 34.2267 63.3662 34.0867 63.2662 33.9867C63.1862 33.8667 63.0462 33.8067 62.8862 33.8067V33.5867H65.7662V33.8067C65.0262 33.8067 63.6862 35.1267 63.0262 35.8067L62.1662 36.7267L66.0062 42.4467ZM72.5676 42.9467C73.9076 42.8467 75.0876 41.9867 75.5676 40.7467L75.8876 40.8267C75.8876 40.8267 75.1476 43.3667 71.6476 43.3667C68.3276 43.3667 66.9876 41.1267 66.9876 38.3667C66.9876 35.6267 68.3276 33.3867 71.6476 33.3867C75.8076 33.3867 76.3276 36.7667 76.3276 38.1667H68.9676C68.9676 38.2667 68.9676 38.3467 68.9676 38.3667C68.9676 40.9467 70.0276 43.1867 72.5676 42.9467ZM71.6476 33.7067C69.9876 33.7067 69.0876 35.5267 68.9676 37.8467H74.3276V37.8267C74.1476 35.0067 73.1476 33.7067 71.6476 33.7067ZM96.4612 37.7467C98.5612 38.4667 99.4012 39.1667 99.4012 40.7267C99.4012 42.6067 97.4612 43.3667 95.5812 43.3667C94.0412 43.4067 92.5612 42.7667 91.5212 41.6267L92.5812 40.5067C92.7612 41.9867 94.0412 43.0867 95.5612 43.0467C96.9812 43.0467 98.0212 42.6067 98.0212 41.4267C98.0212 40.2667 96.5412 39.6667 94.9412 39.1467C92.8212 38.4667 91.7812 37.8467 91.7812 36.1867C91.7812 34.2467 93.5212 33.3867 95.4612 33.3867C96.9012 33.3467 98.2812 33.9067 99.2412 34.9667L98.2812 35.9867C98.2812 35.5867 97.9812 33.7067 95.4412 33.7067C94.4812 33.7067 93.1012 34.0867 93.1012 35.3067C93.1012 36.8067 95.2012 37.3267 96.4612 37.7467ZM105.739 37.7467C107.839 38.4667 108.679 39.1667 108.679 40.7267C108.679 42.6067 106.739 43.3667 104.859 43.3667C103.319 43.4067 101.839 42.7667 100.799 41.6267L101.859 40.5067C102.039 41.9867 103.319 43.0867 104.839 43.0467C106.259 43.0467 107.299 42.6067 107.299 41.4267C107.299 40.2667 105.819 39.6667 104.219 39.1467C102.099 38.4667 101.059 37.8467 101.059 36.1867C101.059 34.2467 102.799 33.3867 104.739 33.3867C106.179 33.3467 107.559 33.9067 108.519 34.9667L107.559 35.9867C107.559 35.5867 107.259 33.7067 104.719 33.7067C103.759 33.7067 102.379 34.0867 102.379 35.3067C102.379 36.8067 104.479 37.3267 105.739 37.7467ZM111.736 32.2667C111.036 32.2667 110.476 31.7067 110.476 31.0067C110.476 30.3067 111.036 29.7467 111.736 29.7467C112.076 29.7467 112.396 29.8667 112.636 30.1067C112.996 30.4667 113.116 31.0067 112.916 31.4867C112.716 31.9667 112.256 32.2667 111.736 32.2667ZM112.756 42.3667C112.756 42.3667 112.756 42.9467 113.256 42.9467V43.1467H110.376V42.9467C110.896 42.9467 110.896 42.3667 110.896 42.3667V34.3667C110.896 34.3667 110.896 33.8067 110.376 33.8067V33.5867H112.356C112.576 33.5867 112.756 33.7667 112.756 33.9867V42.3667ZM119.821 37.7467C121.921 38.4667 122.761 39.1667 122.761 40.7267C122.761 42.6067 120.821 43.3667 118.941 43.3667C117.401 43.4067 115.921 42.7667 114.881 41.6267L115.941 40.5067C116.121 41.9867 117.401 43.0867 118.921 43.0467C120.341 43.0467 121.381 42.6067 121.381 41.4267C121.381 40.2667 119.901 39.6667 118.301 39.1467C116.181 38.4667 115.141 37.8467 115.141 36.1867C115.141 34.2467 116.881 33.3867 118.821 33.3867C120.261 33.3467 121.641 33.9067 122.601 34.9667L121.641 35.9867C121.641 35.5867 121.341 33.7067 118.801 33.7067C117.841 33.7067 116.461 34.0867 116.461 35.3067C116.461 36.8067 118.561 37.3267 119.821 37.7467ZM129.578 42.7667L129.758 42.9867C129.338 43.2467 128.818 43.3867 128.318 43.3667C125.338 43.3667 125.378 40.8267 125.378 40.8267V33.9067H123.958V33.5867H125.378V31.5267L127.238 30.6267V33.5867H129.698V33.9067H127.238V41.2467C127.238 41.6667 127.378 43.0267 128.658 43.0267C128.978 43.0267 129.318 42.9467 129.578 42.7667ZM138.919 42.3667C138.919 42.3667 138.919 42.9467 139.439 42.9467V43.1467H137.459C137.239 43.1467 137.059 42.9667 137.059 42.7467V41.3667C136.459 42.9467 135.259 43.3667 134.279 43.3667C134.059 43.3667 130.779 43.5867 130.779 41.0267C130.779 39.3467 132.199 38.6267 135.019 37.3867C136.459 36.7667 137.059 36.4867 137.059 35.7267V35.5267C137.059 34.6667 136.339 33.7067 134.959 33.7067C133.339 33.7067 132.639 34.9067 132.639 36.2467L131.139 35.7267C131.419 34.9267 132.459 33.3867 135.239 33.3867C137.959 33.3867 138.919 35.0667 138.919 36.4267V42.3667ZM137.059 40.1867V36.5867C136.779 36.8867 136.219 37.1467 135.239 37.6267C133.039 38.6867 132.759 40.4467 132.759 41.1267C132.759 41.7867 133.019 43.0467 134.499 43.0467C136.539 43.0467 137.039 40.7267 137.059 40.1867ZM150.095 42.3667C150.095 42.3667 150.095 42.9467 150.615 42.9467V43.1467H147.735V42.9467C148.235 42.9467 148.235 42.3667 148.235 42.3667V35.5267C148.235 34.6667 147.535 33.7267 146.275 33.7267C144.615 33.7267 143.615 35.3067 143.615 36.1467V42.3667C143.615 42.3667 143.615 42.9467 144.115 42.9467V43.1467H141.235V42.9467C141.755 42.9467 141.755 42.3667 141.755 42.3667V34.3667C141.755 34.3667 141.755 33.8067 141.235 33.8067V33.5867H143.215C143.435 33.5867 143.615 33.7667 143.615 33.9867V35.0867C144.175 33.9867 145.315 33.3267 146.555 33.3867C148.375 33.3867 150.095 34.4467 150.095 36.4667V42.3667ZM157.351 42.7667L157.531 42.9867C157.111 43.2467 156.591 43.3867 156.091 43.3667C153.111 43.3667 153.151 40.8267 153.151 40.8267V33.9067H151.731V33.5867H153.151V31.5267L155.011 30.6267V33.5867H157.471V33.9067H155.011V41.2467C155.011 41.6667 155.151 43.0267 156.431 43.0267C156.751 43.0267 157.091 42.9467 157.351 42.7667Z" fill="black" fill-opacity="0.5"/>
<path d="M55.13 42.3667C55.13 42.3667 55.13 42.9467 55.65 42.9467V43.1467H53.67C53.45 43.1467 53.27 42.9667 53.27 42.7467V41.3667C52.67 42.9467 51.47 43.3667 50.49 43.3667C50.27 43.3667 46.99 43.5867 46.99 41.0267C46.99 39.3467 48.41 38.6267 51.23 37.3867C52.67 36.7667 53.27 36.4867 53.27 35.7267V35.5267C53.27 34.6667 52.55 33.7067 51.17 33.7067C49.55 33.7067 48.85 34.9067 48.85 36.2467L47.35 35.7267C47.63 34.9267 48.67 33.3867 51.45 33.3867C54.17 33.3867 55.13 35.0667 55.13 36.4267V42.3667ZM53.27 40.1867V36.5867C52.99 36.8867 52.43 37.1467 51.45 37.6267C49.25 38.6867 48.97 40.4467 48.97 41.1267C48.97 41.7867 49.23 43.0467 50.71 43.0467C52.75 43.0467 53.25 40.7267 53.27 40.1867ZM66.0062 42.4467C66.1062 42.5867 66.3862 42.9467 66.6662 42.9467V43.1467H64.6462C64.3862 43.1467 64.1262 43.0267 63.9862 42.7867L60.8862 38.1267L59.8462 39.2867V42.3667C59.8462 42.3667 59.8462 42.9467 60.3462 42.9467V43.1467H57.4662V42.9467C57.9862 42.9467 57.9862 42.3667 57.9862 42.3667V29.9067C57.9862 29.9067 57.9862 29.3467 57.4662 29.3467V29.1267H59.4462C59.5462 29.1267 59.6462 29.1867 59.7262 29.2467C59.7862 29.3267 59.8462 29.4267 59.8462 29.5267V38.8067L62.8062 35.5667C63.3262 34.9867 63.4062 34.6267 63.4062 34.3667C63.4262 34.2267 63.3662 34.0867 63.2662 33.9867C63.1862 33.8667 63.0462 33.8067 62.8862 33.8067V33.5867H65.7662V33.8067C65.0262 33.8067 63.6862 35.1267 63.0262 35.8067L62.1662 36.7267L66.0062 42.4467ZM72.5676 42.9467C73.9076 42.8467 75.0876 41.9867 75.5676 40.7467L75.8876 40.8267C75.8876 40.8267 75.1476 43.3667 71.6476 43.3667C68.3276 43.3667 66.9876 41.1267 66.9876 38.3667C66.9876 35.6267 68.3276 33.3867 71.6476 33.3867C75.8076 33.3867 76.3276 36.7667 76.3276 38.1667H68.9676C68.9676 38.2667 68.9676 38.3467 68.9676 38.3667C68.9676 40.9467 70.0276 43.1867 72.5676 42.9467ZM71.6476 33.7067C69.9876 33.7067 69.0876 35.5267 68.9676 37.8467H74.3276V37.8267C74.1476 35.0067 73.1476 33.7067 71.6476 33.7067ZM96.4612 37.7467C98.5612 38.4667 99.4012 39.1667 99.4012 40.7267C99.4012 42.6067 97.4612 43.3667 95.5812 43.3667C94.0412 43.4067 92.5612 42.7667 91.5212 41.6267L92.5812 40.5067C92.7612 41.9867 94.0412 43.0867 95.5612 43.0467C96.9812 43.0467 98.0212 42.6067 98.0212 41.4267C98.0212 40.2667 96.5412 39.6667 94.9412 39.1467C92.8212 38.4667 91.7812 37.8467 91.7812 36.1867C91.7812 34.2467 93.5212 33.3867 95.4612 33.3867C96.9012 33.3467 98.2812 33.9067 99.2412 34.9667L98.2812 35.9867C98.2812 35.5867 97.9812 33.7067 95.4412 33.7067C94.4812 33.7067 93.1012 34.0867 93.1012 35.3067C93.1012 36.8067 95.2012 37.3267 96.4612 37.7467ZM105.739 37.7467C107.839 38.4667 108.679 39.1667 108.679 40.7267C108.679 42.6067 106.739 43.3667 104.859 43.3667C103.319 43.4067 101.839 42.7667 100.799 41.6267L101.859 40.5067C102.039 41.9867 103.319 43.0867 104.839 43.0467C106.259 43.0467 107.299 42.6067 107.299 41.4267C107.299 40.2667 105.819 39.6667 104.219 39.1467C102.099 38.4667 101.059 37.8467 101.059 36.1867C101.059 34.2467 102.799 33.3867 104.739 33.3867C106.179 33.3467 107.559 33.9067 108.519 34.9667L107.559 35.9867C107.559 35.5867 107.259 33.7067 104.719 33.7067C103.759 33.7067 102.379 34.0867 102.379 35.3067C102.379 36.8067 104.479 37.3267 105.739 37.7467ZM111.736 32.2667C111.036 32.2667 110.476 31.7067 110.476 31.0067C110.476 30.3067 111.036 29.7467 111.736 29.7467C112.076 29.7467 112.396 29.8667 112.636 30.1067C112.996 30.4667 113.116 31.0067 112.916 31.4867C112.716 31.9667 112.256 32.2667 111.736 32.2667ZM112.756 42.3667C112.756 42.3667 112.756 42.9467 113.256 42.9467V43.1467H110.376V42.9467C110.896 42.9467 110.896 42.3667 110.896 42.3667V34.3667C110.896 34.3667 110.896 33.8067 110.376 33.8067V33.5867H112.356C112.576 33.5867 112.756 33.7667 112.756 33.9867V42.3667ZM119.821 37.7467C121.921 38.4667 122.761 39.1667 122.761 40.7267C122.761 42.6067 120.821 43.3667 118.941 43.3667C117.401 43.4067 115.921 42.7667 114.881 41.6267L115.941 40.5067C116.121 41.9867 117.401 43.0867 118.921 43.0467C120.341 43.0467 121.381 42.6067 121.381 41.4267C121.381 40.2667 119.901 39.6667 118.301 39.1467C116.181 38.4667 115.141 37.8467 115.141 36.1867C115.141 34.2467 116.881 33.3867 118.821 33.3867C120.261 33.3467 121.641 33.9067 122.601 34.9667L121.641 35.9867C121.641 35.5867 121.341 33.7067 118.801 33.7067C117.841 33.7067 116.461 34.0867 116.461 35.3067C116.461 36.8067 118.561 37.3267 119.821 37.7467ZM129.578 42.7667L129.758 42.9867C129.338 43.2467 128.818 43.3867 128.318 43.3667C125.338 43.3667 125.378 40.8267 125.378 40.8267V33.9067H123.958V33.5867H125.378V31.5267L127.238 30.6267V33.5867H129.698V33.9067H127.238V41.2467C127.238 41.6667 127.378 43.0267 128.658 43.0267C128.978 43.0267 129.318 42.9467 129.578 42.7667ZM138.919 42.3667C138.919 42.3667 138.919 42.9467 139.439 42.9467V43.1467H137.459C137.239 43.1467 137.059 42.9667 137.059 42.7467V41.3667C136.459 42.9467 135.259 43.3667 134.279 43.3667C134.059 43.3667 130.779 43.5867 130.779 41.0267C130.779 39.3467 132.199 38.6267 135.019 37.3867C136.459 36.7667 137.059 36.4867 137.059 35.7267V35.5267C137.059 34.6667 136.339 33.7067 134.959 33.7067C133.339 33.7067 132.639 34.9067 132.639 36.2467L131.139 35.7267C131.419 34.9267 132.459 33.3867 135.239 33.3867C137.959 33.3867 138.919 35.0667 138.919 36.4267V42.3667ZM137.059 40.1867V36.5867C136.779 36.8867 136.219 37.1467 135.239 37.6267C133.039 38.6867 132.759 40.4467 132.759 41.1267C132.759 41.7867 133.019 43.0467 134.499 43.0467C136.539 43.0467 137.039 40.7267 137.059 40.1867ZM150.095 42.3667C150.095 42.3667 150.095 42.9467 150.615 42.9467V43.1467H147.735V42.9467C148.235 42.9467 148.235 42.3667 148.235 42.3667V35.5267C148.235 34.6667 147.535 33.7267 146.275 33.7267C144.615 33.7267 143.615 35.3067 143.615 36.1467V42.3667C143.615 42.3667 143.615 42.9467 144.115 42.9467V43.1467H141.235V42.9467C141.755 42.9467 141.755 42.3667 141.755 42.3667V34.3667C141.755 34.3667 141.755 33.8067 141.235 33.8067V33.5867H143.215C143.435 33.5867 143.615 33.7667 143.615 33.9867V35.0867C144.175 33.9867 145.315 33.3267 146.555 33.3867C148.375 33.3867 150.095 34.4467 150.095 36.4667V42.3667ZM157.351 42.7667L157.531 42.9867C157.111 43.2467 156.591 43.3867 156.091 43.3667C153.111 43.3667 153.151 40.8267 153.151 40.8267V33.9067H151.731V33.5867H153.151V31.5267L155.011 30.6267V33.5867H157.471V33.9067H155.011V41.2467C155.011 41.6667 155.151 43.0267 156.431 43.0267C156.751 43.0267 157.091 42.9467 157.351 42.7667Z" fill="white" fill-opacity="0.75"/>
<defs>
<clipPath id="clip0_74_1140">
<rect width="32.9975" height="50" fill="white" transform="translate(0.50293)"/>
</clipPath>
</defs>
</svg>
