<svg width="13" height="13" viewBox="0 0 13 13" fill="none" xmlns="http://www.w3.org/2000/svg">
<path d="M12.4545 12.5L8.75312 8.65751M8.75312 8.65751C9.25454 8.18481 9.64722 7.60383 9.90279 6.95656C10.1969 6.19789 10.2966 5.37468 10.1925 4.56531C10.0884 3.75595 9.78389 2.98737 9.30796 2.33276C7.87838 0.416641 5.61903 0.490929 5.3941 0.503738C4.72683 0.54486 4.07537 0.728872 3.48175 1.0439C2.88812 1.35894 2.3655 1.79799 1.9476 2.33276C1.88262 2.41986 0.460534 4.38209 1.22531 6.73882C1.47056 7.49073 1.89697 8.16703 2.46507 8.70509C3.03316 9.24315 3.72455 9.62555 4.47519 9.81687C5.22583 10.0082 6.01143 10.0022 6.75924 9.79958C7.50704 9.59692 8.19284 9.2041 8.75312 8.65751Z" stroke="black" stroke-miterlimit="10"/>
</svg>
